<mxfile host="app.diagrams.net" modified="2023-09-29T14:51:48.489Z" agent="Mozilla/5.0 (Windows NT 10.0; Win64; x64) AppleWebKit/537.36 (KHTML, like Gecko) Chrome/117.0.0.0 Safari/537.36" etag="dDVKUhiEHXjn_5zQ5F65" version="22.0.0" type="device">
  <diagram id="C5RBs43oDa-KdzZeNtuy" name="Page-1">
    <mxGraphModel dx="4617" dy="1985" grid="1" gridSize="10" guides="1" tooltips="1" connect="1" arrows="1" fold="1" page="1" pageScale="1" pageWidth="827" pageHeight="1169" math="0" shadow="0">
      <root>
        <mxCell id="WIyWlLk6GJQsqaUBKTNV-0" />
        <mxCell id="WIyWlLk6GJQsqaUBKTNV-1" parent="WIyWlLk6GJQsqaUBKTNV-0" />
        <mxCell id="zkfFHV4jXpPFQw0GAbJ--6" value="Cliente" style="swimlane;fontStyle=0;align=center;verticalAlign=top;childLayout=stackLayout;horizontal=1;startSize=26;horizontalStack=0;resizeParent=1;resizeLast=0;collapsible=1;marginBottom=0;rounded=0;shadow=0;strokeWidth=1;fillColor=#fff2cc;strokeColor=#d6b656;" parent="WIyWlLk6GJQsqaUBKTNV-1" vertex="1">
          <mxGeometry x="395" y="180" width="300" height="140" as="geometry">
            <mxRectangle x="130" y="380" width="160" height="26" as="alternateBounds" />
          </mxGeometry>
        </mxCell>
        <mxCell id="kdAsW70PlrFogEJaz6tP-25" value="- quantidade_pedidos:int" style="text;align=left;verticalAlign=top;spacingLeft=4;spacingRight=4;overflow=hidden;rotatable=0;points=[[0,0.5],[1,0.5]];portConstraint=eastwest;rounded=0;" parent="zkfFHV4jXpPFQw0GAbJ--6" vertex="1">
          <mxGeometry y="26" width="300" height="26" as="geometry" />
        </mxCell>
        <mxCell id="zkfFHV4jXpPFQw0GAbJ--9" value="" style="line;html=1;strokeWidth=1;align=left;verticalAlign=middle;spacingTop=-1;spacingLeft=3;spacingRight=3;rotatable=0;labelPosition=right;points=[];portConstraint=eastwest;rounded=0;" parent="zkfFHV4jXpPFQw0GAbJ--6" vertex="1">
          <mxGeometry y="52" width="300" height="8" as="geometry" />
        </mxCell>
        <mxCell id="hOtxBI7cqi8a_a_TEYvA-14" value="+ &lt;&lt;create&gt;&gt; __init__(nome, cpf, telefone, endereco)" style="text;align=left;verticalAlign=top;spacingLeft=4;spacingRight=4;overflow=hidden;rotatable=0;points=[[0,0.5],[1,0.5]];portConstraint=eastwest;rounded=0;" parent="zkfFHV4jXpPFQw0GAbJ--6" vertex="1">
          <mxGeometry y="60" width="300" height="26" as="geometry" />
        </mxCell>
        <mxCell id="zkfFHV4jXpPFQw0GAbJ--13" value="Pessoa" style="swimlane;fontStyle=2;align=center;verticalAlign=top;childLayout=stackLayout;horizontal=1;startSize=26;horizontalStack=0;resizeParent=1;resizeLast=0;collapsible=1;marginBottom=0;rounded=0;shadow=0;strokeWidth=1;fillColor=#fff2cc;strokeColor=#d6b656;" parent="WIyWlLk6GJQsqaUBKTNV-1" vertex="1">
          <mxGeometry x="605" y="-20" width="240" height="138" as="geometry">
            <mxRectangle x="340" y="380" width="170" height="26" as="alternateBounds" />
          </mxGeometry>
        </mxCell>
        <mxCell id="zkfFHV4jXpPFQw0GAbJ--14" value="- nome:str" style="text;align=left;verticalAlign=top;spacingLeft=4;spacingRight=4;overflow=hidden;rotatable=0;points=[[0,0.5],[1,0.5]];portConstraint=eastwest;rounded=0;" parent="zkfFHV4jXpPFQw0GAbJ--13" vertex="1">
          <mxGeometry y="26" width="240" height="26" as="geometry" />
        </mxCell>
        <mxCell id="kdAsW70PlrFogEJaz6tP-0" value="- cpf:str" style="text;align=left;verticalAlign=top;spacingLeft=4;spacingRight=4;overflow=hidden;rotatable=0;points=[[0,0.5],[1,0.5]];portConstraint=eastwest;rounded=0;" parent="zkfFHV4jXpPFQw0GAbJ--13" vertex="1">
          <mxGeometry y="52" width="240" height="26" as="geometry" />
        </mxCell>
        <mxCell id="kdAsW70PlrFogEJaz6tP-1" value="- telefone:str" style="text;align=left;verticalAlign=top;spacingLeft=4;spacingRight=4;overflow=hidden;rotatable=0;points=[[0,0.5],[1,0.5]];portConstraint=eastwest;rounded=0;" parent="zkfFHV4jXpPFQw0GAbJ--13" vertex="1">
          <mxGeometry y="78" width="240" height="26" as="geometry" />
        </mxCell>
        <mxCell id="zkfFHV4jXpPFQw0GAbJ--15" value="" style="line;html=1;strokeWidth=1;align=left;verticalAlign=middle;spacingTop=-1;spacingLeft=3;spacingRight=3;rotatable=0;labelPosition=right;points=[];portConstraint=eastwest;rounded=0;" parent="zkfFHV4jXpPFQw0GAbJ--13" vertex="1">
          <mxGeometry y="104" width="240" height="8" as="geometry" />
        </mxCell>
        <mxCell id="hOtxBI7cqi8a_a_TEYvA-12" value="+ &lt;&lt;create&gt;&gt; __init__(nome, cpf, telefone)" style="text;align=left;verticalAlign=top;spacingLeft=4;spacingRight=4;overflow=hidden;rotatable=0;points=[[0,0.5],[1,0.5]];portConstraint=eastwest;rounded=0;" parent="zkfFHV4jXpPFQw0GAbJ--13" vertex="1">
          <mxGeometry y="112" width="240" height="26" as="geometry" />
        </mxCell>
        <mxCell id="34jW8y6ZJVeA6K0mkwZz-12" style="edgeStyle=orthogonalEdgeStyle;rounded=0;orthogonalLoop=1;jettySize=auto;html=1;entryX=0;entryY=0.5;entryDx=0;entryDy=0;endArrow=none;endFill=0;startArrow=open;startFill=0;" parent="WIyWlLk6GJQsqaUBKTNV-1" source="zkfFHV4jXpPFQw0GAbJ--17" target="34jW8y6ZJVeA6K0mkwZz-9" edge="1">
          <mxGeometry relative="1" as="geometry" />
        </mxCell>
        <mxCell id="zkfFHV4jXpPFQw0GAbJ--17" value="Funcionario" style="swimlane;fontStyle=2;align=center;verticalAlign=top;childLayout=stackLayout;horizontal=1;startSize=26;horizontalStack=0;resizeParent=1;resizeLast=0;collapsible=1;marginBottom=0;rounded=0;shadow=0;strokeWidth=1;fillColor=#fff2cc;strokeColor=#d6b656;" parent="WIyWlLk6GJQsqaUBKTNV-1" vertex="1">
          <mxGeometry x="725" y="180" width="280" height="140" as="geometry">
            <mxRectangle x="550" y="140" width="160" height="26" as="alternateBounds" />
          </mxGeometry>
        </mxCell>
        <mxCell id="zkfFHV4jXpPFQw0GAbJ--18" value="- salario:float" style="text;align=left;verticalAlign=top;spacingLeft=4;spacingRight=4;overflow=hidden;rotatable=0;points=[[0,0.5],[1,0.5]];portConstraint=eastwest;rounded=0;" parent="zkfFHV4jXpPFQw0GAbJ--17" vertex="1">
          <mxGeometry y="26" width="280" height="26" as="geometry" />
        </mxCell>
        <mxCell id="ZCnHrs2GG1sbxFjUJOWf-37" value="- vendas_mes:int" style="text;align=left;verticalAlign=top;spacingLeft=4;spacingRight=4;overflow=hidden;rotatable=0;points=[[0,0.5],[1,0.5]];portConstraint=eastwest;rounded=0;" parent="zkfFHV4jXpPFQw0GAbJ--17" vertex="1">
          <mxGeometry y="52" width="280" height="26" as="geometry" />
        </mxCell>
        <mxCell id="zkfFHV4jXpPFQw0GAbJ--23" value="" style="line;html=1;strokeWidth=1;align=left;verticalAlign=middle;spacingTop=-1;spacingLeft=3;spacingRight=3;rotatable=0;labelPosition=right;points=[];portConstraint=eastwest;rounded=0;" parent="zkfFHV4jXpPFQw0GAbJ--17" vertex="1">
          <mxGeometry y="78" width="280" height="8" as="geometry" />
        </mxCell>
        <mxCell id="hOtxBI7cqi8a_a_TEYvA-13" value="+ &lt;&lt;create&gt;&gt; __init__(nome, cpf, telefone, salario)" style="text;align=left;verticalAlign=top;spacingLeft=4;spacingRight=4;overflow=hidden;rotatable=0;points=[[0,0.5],[1,0.5]];portConstraint=eastwest;rounded=0;" parent="zkfFHV4jXpPFQw0GAbJ--17" vertex="1">
          <mxGeometry y="86" width="280" height="26" as="geometry" />
        </mxCell>
        <mxCell id="QIKu43iznkj8tfLvrIEL-0" value="Produto" style="swimlane;fontStyle=2;align=center;verticalAlign=top;childLayout=stackLayout;horizontal=1;startSize=26;horizontalStack=0;resizeParent=1;resizeLast=0;collapsible=1;marginBottom=0;rounded=0;shadow=0;strokeWidth=1;fillColor=#fff2cc;strokeColor=#d6b656;" parent="WIyWlLk6GJQsqaUBKTNV-1" vertex="1">
          <mxGeometry x="-1250" y="86" width="220" height="140" as="geometry">
            <mxRectangle x="550" y="140" width="160" height="26" as="alternateBounds" />
          </mxGeometry>
        </mxCell>
        <mxCell id="QIKu43iznkj8tfLvrIEL-1" value="- preco:float" style="text;align=left;verticalAlign=top;spacingLeft=4;spacingRight=4;overflow=hidden;rotatable=0;points=[[0,0.5],[1,0.5]];portConstraint=eastwest;rounded=0;" parent="QIKu43iznkj8tfLvrIEL-0" vertex="1">
          <mxGeometry y="26" width="220" height="26" as="geometry" />
        </mxCell>
        <mxCell id="QIKu43iznkj8tfLvrIEL-6" value="" style="line;html=1;strokeWidth=1;align=left;verticalAlign=middle;spacingTop=-1;spacingLeft=3;spacingRight=3;rotatable=0;labelPosition=right;points=[];portConstraint=eastwest;rounded=0;" parent="QIKu43iznkj8tfLvrIEL-0" vertex="1">
          <mxGeometry y="52" width="220" height="8" as="geometry" />
        </mxCell>
        <mxCell id="hOtxBI7cqi8a_a_TEYvA-26" value="+ &lt;&lt;create&gt;&gt; __init__(preco)" style="text;align=left;verticalAlign=top;spacingLeft=4;spacingRight=4;overflow=hidden;rotatable=0;points=[[0,0.5],[1,0.5]];portConstraint=eastwest;rounded=0;" parent="QIKu43iznkj8tfLvrIEL-0" vertex="1">
          <mxGeometry y="60" width="220" height="26" as="geometry" />
        </mxCell>
        <mxCell id="QIKu43iznkj8tfLvrIEL-9" value="Gerente" style="swimlane;fontStyle=0;align=center;verticalAlign=top;childLayout=stackLayout;horizontal=1;startSize=26;horizontalStack=0;resizeParent=1;resizeLast=0;collapsible=1;marginBottom=0;rounded=0;shadow=0;strokeWidth=1;fillColor=#fff2cc;strokeColor=#d6b656;" parent="WIyWlLk6GJQsqaUBKTNV-1" vertex="1">
          <mxGeometry x="240" y="478" width="310" height="134" as="geometry">
            <mxRectangle x="550" y="140" width="160" height="26" as="alternateBounds" />
          </mxGeometry>
        </mxCell>
        <mxCell id="QIKu43iznkj8tfLvrIEL-12" value="" style="line;html=1;strokeWidth=1;align=left;verticalAlign=middle;spacingTop=-1;spacingLeft=3;spacingRight=3;rotatable=0;labelPosition=right;points=[];portConstraint=eastwest;rounded=0;" parent="QIKu43iznkj8tfLvrIEL-9" vertex="1">
          <mxGeometry y="26" width="310" height="8" as="geometry" />
        </mxCell>
        <mxCell id="hOtxBI7cqi8a_a_TEYvA-41" value="+ &lt;&lt;create&gt;&gt; __init__(nome, cpf, telefone, salario)" style="text;align=left;verticalAlign=top;spacingLeft=4;spacingRight=4;overflow=hidden;rotatable=0;points=[[0,0.5],[1,0.5]];portConstraint=eastwest;rounded=0;fontStyle=0" parent="QIKu43iznkj8tfLvrIEL-9" vertex="1">
          <mxGeometry y="34" width="310" height="26" as="geometry" />
        </mxCell>
        <mxCell id="QIKu43iznkj8tfLvrIEL-15" value="Pizzaiolo" style="swimlane;fontStyle=0;align=center;verticalAlign=top;childLayout=stackLayout;horizontal=1;startSize=26;horizontalStack=0;resizeParent=1;resizeLast=0;collapsible=1;marginBottom=0;rounded=0;shadow=0;strokeWidth=1;fillColor=#fff2cc;strokeColor=#d6b656;" parent="WIyWlLk6GJQsqaUBKTNV-1" vertex="1">
          <mxGeometry x="564" y="478" width="286" height="132" as="geometry">
            <mxRectangle x="550" y="140" width="160" height="26" as="alternateBounds" />
          </mxGeometry>
        </mxCell>
        <mxCell id="QIKu43iznkj8tfLvrIEL-18" value="" style="line;html=1;strokeWidth=1;align=left;verticalAlign=middle;spacingTop=-1;spacingLeft=3;spacingRight=3;rotatable=0;labelPosition=right;points=[];portConstraint=eastwest;rounded=0;" parent="QIKu43iznkj8tfLvrIEL-15" vertex="1">
          <mxGeometry y="26" width="286" height="8" as="geometry" />
        </mxCell>
        <mxCell id="hOtxBI7cqi8a_a_TEYvA-42" value="+ &lt;&lt;create&gt;&gt; __init__(nome, cpf, telefone, salario)" style="text;align=left;verticalAlign=top;spacingLeft=4;spacingRight=4;overflow=hidden;rotatable=0;points=[[0,0.5],[1,0.5]];portConstraint=eastwest;rounded=0;" parent="QIKu43iznkj8tfLvrIEL-15" vertex="1">
          <mxGeometry y="34" width="286" height="26" as="geometry" />
        </mxCell>
        <mxCell id="QIKu43iznkj8tfLvrIEL-21" value="Entregador" style="swimlane;fontStyle=0;align=center;verticalAlign=top;childLayout=stackLayout;horizontal=1;startSize=26;horizontalStack=0;resizeParent=1;resizeLast=0;collapsible=1;marginBottom=0;rounded=0;shadow=0;strokeWidth=1;fillColor=#fff2cc;strokeColor=#d6b656;" parent="WIyWlLk6GJQsqaUBKTNV-1" vertex="1">
          <mxGeometry x="870" y="478" width="286" height="132" as="geometry">
            <mxRectangle x="550" y="140" width="160" height="26" as="alternateBounds" />
          </mxGeometry>
        </mxCell>
        <mxCell id="QIKu43iznkj8tfLvrIEL-24" value="" style="line;html=1;strokeWidth=1;align=left;verticalAlign=middle;spacingTop=-1;spacingLeft=3;spacingRight=3;rotatable=0;labelPosition=right;points=[];portConstraint=eastwest;rounded=0;" parent="QIKu43iznkj8tfLvrIEL-21" vertex="1">
          <mxGeometry y="26" width="286" height="8" as="geometry" />
        </mxCell>
        <mxCell id="hOtxBI7cqi8a_a_TEYvA-43" value="+ &lt;&lt;create&gt;&gt; __init__(nome, cpf, telefone, salario)" style="text;align=left;verticalAlign=top;spacingLeft=4;spacingRight=4;overflow=hidden;rotatable=0;points=[[0,0.5],[1,0.5]];portConstraint=eastwest;rounded=0;" parent="QIKu43iznkj8tfLvrIEL-21" vertex="1">
          <mxGeometry y="34" width="286" height="26" as="geometry" />
        </mxCell>
        <mxCell id="QIKu43iznkj8tfLvrIEL-27" value="Atendente" style="swimlane;fontStyle=0;align=center;verticalAlign=top;childLayout=stackLayout;horizontal=1;startSize=26;horizontalStack=0;resizeParent=1;resizeLast=0;collapsible=1;marginBottom=0;rounded=0;shadow=0;strokeWidth=1;fillColor=#fff2cc;strokeColor=#d6b656;" parent="WIyWlLk6GJQsqaUBKTNV-1" vertex="1">
          <mxGeometry x="1170" y="478" width="285" height="132" as="geometry">
            <mxRectangle x="550" y="140" width="160" height="26" as="alternateBounds" />
          </mxGeometry>
        </mxCell>
        <mxCell id="QIKu43iznkj8tfLvrIEL-30" value="" style="line;html=1;strokeWidth=1;align=left;verticalAlign=middle;spacingTop=-1;spacingLeft=3;spacingRight=3;rotatable=0;labelPosition=right;points=[];portConstraint=eastwest;rounded=0;" parent="QIKu43iznkj8tfLvrIEL-27" vertex="1">
          <mxGeometry y="26" width="285" height="8" as="geometry" />
        </mxCell>
        <mxCell id="hOtxBI7cqi8a_a_TEYvA-44" value="+ &lt;&lt;create&gt;&gt; __init__(nome, cpf, telefone, salario)" style="text;align=left;verticalAlign=top;spacingLeft=4;spacingRight=4;overflow=hidden;rotatable=0;points=[[0,0.5],[1,0.5]];portConstraint=eastwest;rounded=0;" parent="QIKu43iznkj8tfLvrIEL-27" vertex="1">
          <mxGeometry y="34" width="285" height="26" as="geometry" />
        </mxCell>
        <mxCell id="QIKu43iznkj8tfLvrIEL-36" value="Pizza" style="swimlane;fontStyle=0;align=center;verticalAlign=top;childLayout=stackLayout;horizontal=1;startSize=26;horizontalStack=0;resizeParent=1;resizeLast=0;collapsible=1;marginBottom=0;rounded=0;shadow=0;strokeWidth=1;fillColor=#fff2cc;strokeColor=#d6b656;" parent="WIyWlLk6GJQsqaUBKTNV-1" vertex="1">
          <mxGeometry x="-1410" y="266" width="240" height="140" as="geometry">
            <mxRectangle x="550" y="140" width="160" height="26" as="alternateBounds" />
          </mxGeometry>
        </mxCell>
        <mxCell id="QIKu43iznkj8tfLvrIEL-37" value="- sabor:Sabor" style="text;align=left;verticalAlign=top;spacingLeft=4;spacingRight=4;overflow=hidden;rotatable=0;points=[[0,0.5],[1,0.5]];portConstraint=eastwest;rounded=0;" parent="QIKu43iznkj8tfLvrIEL-36" vertex="1">
          <mxGeometry y="26" width="240" height="26" as="geometry" />
        </mxCell>
        <mxCell id="QIKu43iznkj8tfLvrIEL-39" value="" style="line;html=1;strokeWidth=1;align=left;verticalAlign=middle;spacingTop=-1;spacingLeft=3;spacingRight=3;rotatable=0;labelPosition=right;points=[];portConstraint=eastwest;rounded=0;" parent="QIKu43iznkj8tfLvrIEL-36" vertex="1">
          <mxGeometry y="52" width="240" height="8" as="geometry" />
        </mxCell>
        <mxCell id="hOtxBI7cqi8a_a_TEYvA-27" value="+ &lt;&lt;create&gt;&gt; __init__(preco, sabor)" style="text;align=left;verticalAlign=top;spacingLeft=4;spacingRight=4;overflow=hidden;rotatable=0;points=[[0,0.5],[1,0.5]];portConstraint=eastwest;rounded=0;" parent="QIKu43iznkj8tfLvrIEL-36" vertex="1">
          <mxGeometry y="60" width="240" height="26" as="geometry" />
        </mxCell>
        <mxCell id="kdAsW70PlrFogEJaz6tP-39" value="+ tem_ingredientes(estoque):bool" style="text;align=left;verticalAlign=top;spacingLeft=4;spacingRight=4;overflow=hidden;rotatable=0;points=[[0,0.5],[1,0.5]];portConstraint=eastwest;rounded=0;" parent="QIKu43iznkj8tfLvrIEL-36" vertex="1">
          <mxGeometry y="86" width="240" height="26" as="geometry" />
        </mxCell>
        <mxCell id="QIKu43iznkj8tfLvrIEL-42" value="Bebida" style="swimlane;fontStyle=0;align=center;verticalAlign=top;childLayout=stackLayout;horizontal=1;startSize=26;horizontalStack=0;resizeParent=1;resizeLast=0;collapsible=1;marginBottom=0;rounded=0;shadow=0;strokeWidth=1;fillColor=#fff2cc;strokeColor=#d6b656;" parent="WIyWlLk6GJQsqaUBKTNV-1" vertex="1">
          <mxGeometry x="-1080" y="266" width="230" height="140" as="geometry">
            <mxRectangle x="550" y="140" width="160" height="26" as="alternateBounds" />
          </mxGeometry>
        </mxCell>
        <mxCell id="QIKu43iznkj8tfLvrIEL-43" value="- tipo:Tipo_Bebida" style="text;align=left;verticalAlign=top;spacingLeft=4;spacingRight=4;overflow=hidden;rotatable=0;points=[[0,0.5],[1,0.5]];portConstraint=eastwest;rounded=0;" parent="QIKu43iznkj8tfLvrIEL-42" vertex="1">
          <mxGeometry y="26" width="230" height="26" as="geometry" />
        </mxCell>
        <mxCell id="QIKu43iznkj8tfLvrIEL-45" value="" style="line;html=1;strokeWidth=1;align=left;verticalAlign=middle;spacingTop=-1;spacingLeft=3;spacingRight=3;rotatable=0;labelPosition=right;points=[];portConstraint=eastwest;rounded=0;" parent="QIKu43iznkj8tfLvrIEL-42" vertex="1">
          <mxGeometry y="52" width="230" height="8" as="geometry" />
        </mxCell>
        <mxCell id="hOtxBI7cqi8a_a_TEYvA-28" value="+ &lt;&lt;create&gt;&gt; __init__(preco, tipo)" style="text;align=left;verticalAlign=top;spacingLeft=4;spacingRight=4;overflow=hidden;rotatable=0;points=[[0,0.5],[1,0.5]];portConstraint=eastwest;rounded=0;" parent="QIKu43iznkj8tfLvrIEL-42" vertex="1">
          <mxGeometry y="60" width="230" height="26" as="geometry" />
        </mxCell>
        <mxCell id="kdAsW70PlrFogEJaz6tP-42" value="+ tem_estoque(estoque):bool" style="text;align=left;verticalAlign=top;spacingLeft=4;spacingRight=4;overflow=hidden;rotatable=0;points=[[0,0.5],[1,0.5]];portConstraint=eastwest;rounded=0;" parent="QIKu43iznkj8tfLvrIEL-42" vertex="1">
          <mxGeometry y="86" width="230" height="26" as="geometry" />
        </mxCell>
        <mxCell id="QIKu43iznkj8tfLvrIEL-48" value="Sabor (enum)" style="swimlane;fontStyle=0;align=center;verticalAlign=top;childLayout=stackLayout;horizontal=1;startSize=26;horizontalStack=0;resizeParent=1;resizeLast=0;collapsible=1;marginBottom=0;rounded=0;shadow=0;strokeWidth=1;fillColor=#fff2cc;strokeColor=#d6b656;" parent="WIyWlLk6GJQsqaUBKTNV-1" vertex="1">
          <mxGeometry x="-1370" y="456" width="160" height="234" as="geometry">
            <mxRectangle x="550" y="140" width="160" height="26" as="alternateBounds" />
          </mxGeometry>
        </mxCell>
        <mxCell id="QIKu43iznkj8tfLvrIEL-49" value="CALABRESA" style="text;align=left;verticalAlign=top;spacingLeft=4;spacingRight=4;overflow=hidden;rotatable=0;points=[[0,0.5],[1,0.5]];portConstraint=eastwest;rounded=0;" parent="QIKu43iznkj8tfLvrIEL-48" vertex="1">
          <mxGeometry y="26" width="160" height="26" as="geometry" />
        </mxCell>
        <mxCell id="QIKu43iznkj8tfLvrIEL-50" value="CALABRESA_CEBOLA" style="text;align=left;verticalAlign=top;spacingLeft=4;spacingRight=4;overflow=hidden;rotatable=0;points=[[0,0.5],[1,0.5]];portConstraint=eastwest;rounded=0;shadow=0;html=0;" parent="QIKu43iznkj8tfLvrIEL-48" vertex="1">
          <mxGeometry y="52" width="160" height="26" as="geometry" />
        </mxCell>
        <mxCell id="QIKu43iznkj8tfLvrIEL-52" value="QUATRO_QUEIJOS" style="text;align=left;verticalAlign=top;spacingLeft=4;spacingRight=4;overflow=hidden;rotatable=0;points=[[0,0.5],[1,0.5]];portConstraint=eastwest;rounded=0;" parent="QIKu43iznkj8tfLvrIEL-48" vertex="1">
          <mxGeometry y="78" width="160" height="26" as="geometry" />
        </mxCell>
        <mxCell id="QIKu43iznkj8tfLvrIEL-53" value="PORTUGUESA" style="text;align=left;verticalAlign=top;spacingLeft=4;spacingRight=4;overflow=hidden;rotatable=0;points=[[0,0.5],[1,0.5]];portConstraint=eastwest;rounded=0;" parent="QIKu43iznkj8tfLvrIEL-48" vertex="1">
          <mxGeometry y="104" width="160" height="26" as="geometry" />
        </mxCell>
        <mxCell id="kdAsW70PlrFogEJaz6tP-5" value="MUCARELA" style="text;align=left;verticalAlign=top;spacingLeft=4;spacingRight=4;overflow=hidden;rotatable=0;points=[[0,0.5],[1,0.5]];portConstraint=eastwest;rounded=0;" parent="QIKu43iznkj8tfLvrIEL-48" vertex="1">
          <mxGeometry y="130" width="160" height="26" as="geometry" />
        </mxCell>
        <mxCell id="kdAsW70PlrFogEJaz6tP-6" value="MARGUERITA" style="text;align=left;verticalAlign=top;spacingLeft=4;spacingRight=4;overflow=hidden;rotatable=0;points=[[0,0.5],[1,0.5]];portConstraint=eastwest;rounded=0;" parent="QIKu43iznkj8tfLvrIEL-48" vertex="1">
          <mxGeometry y="156" width="160" height="26" as="geometry" />
        </mxCell>
        <mxCell id="kdAsW70PlrFogEJaz6tP-7" value="FRANGO_CATUPIRY" style="text;align=left;verticalAlign=top;spacingLeft=4;spacingRight=4;overflow=hidden;rotatable=0;points=[[0,0.5],[1,0.5]];portConstraint=eastwest;rounded=0;" parent="QIKu43iznkj8tfLvrIEL-48" vertex="1">
          <mxGeometry y="182" width="160" height="26" as="geometry" />
        </mxCell>
        <mxCell id="kdAsW70PlrFogEJaz6tP-8" value="NAPOLITANA" style="text;align=left;verticalAlign=top;spacingLeft=4;spacingRight=4;overflow=hidden;rotatable=0;points=[[0,0.5],[1,0.5]];portConstraint=eastwest;rounded=0;" parent="QIKu43iznkj8tfLvrIEL-48" vertex="1">
          <mxGeometry y="208" width="160" height="26" as="geometry" />
        </mxCell>
        <mxCell id="QIKu43iznkj8tfLvrIEL-54" value="Tipo_Bebida (enum)" style="swimlane;fontStyle=0;align=center;verticalAlign=top;childLayout=stackLayout;horizontal=1;startSize=26;horizontalStack=0;resizeParent=1;resizeLast=0;collapsible=1;marginBottom=0;rounded=0;shadow=0;strokeWidth=1;fillColor=#fff2cc;strokeColor=#d6b656;" parent="WIyWlLk6GJQsqaUBKTNV-1" vertex="1">
          <mxGeometry x="-1040" y="456" width="160" height="208" as="geometry">
            <mxRectangle x="550" y="140" width="160" height="26" as="alternateBounds" />
          </mxGeometry>
        </mxCell>
        <mxCell id="QIKu43iznkj8tfLvrIEL-55" value="COCA" style="text;align=left;verticalAlign=top;spacingLeft=4;spacingRight=4;overflow=hidden;rotatable=0;points=[[0,0.5],[1,0.5]];portConstraint=eastwest;rounded=0;" parent="QIKu43iznkj8tfLvrIEL-54" vertex="1">
          <mxGeometry y="26" width="160" height="26" as="geometry" />
        </mxCell>
        <mxCell id="QIKu43iznkj8tfLvrIEL-56" value="GUARANA" style="text;align=left;verticalAlign=top;spacingLeft=4;spacingRight=4;overflow=hidden;rotatable=0;points=[[0,0.5],[1,0.5]];portConstraint=eastwest;rounded=0;shadow=0;html=0;" parent="QIKu43iznkj8tfLvrIEL-54" vertex="1">
          <mxGeometry y="52" width="160" height="26" as="geometry" />
        </mxCell>
        <mxCell id="QIKu43iznkj8tfLvrIEL-58" value="SPRITE" style="text;align=left;verticalAlign=top;spacingLeft=4;spacingRight=4;overflow=hidden;rotatable=0;points=[[0,0.5],[1,0.5]];portConstraint=eastwest;rounded=0;" parent="QIKu43iznkj8tfLvrIEL-54" vertex="1">
          <mxGeometry y="78" width="160" height="26" as="geometry" />
        </mxCell>
        <mxCell id="QIKu43iznkj8tfLvrIEL-59" value="AGUA" style="text;align=left;verticalAlign=top;spacingLeft=4;spacingRight=4;overflow=hidden;rotatable=0;points=[[0,0.5],[1,0.5]];portConstraint=eastwest;rounded=0;" parent="QIKu43iznkj8tfLvrIEL-54" vertex="1">
          <mxGeometry y="104" width="160" height="26" as="geometry" />
        </mxCell>
        <mxCell id="kdAsW70PlrFogEJaz6tP-9" value="AGUA_GAS" style="text;align=left;verticalAlign=top;spacingLeft=4;spacingRight=4;overflow=hidden;rotatable=0;points=[[0,0.5],[1,0.5]];portConstraint=eastwest;rounded=0;" parent="QIKu43iznkj8tfLvrIEL-54" vertex="1">
          <mxGeometry y="130" width="160" height="26" as="geometry" />
        </mxCell>
        <mxCell id="kdAsW70PlrFogEJaz6tP-10" value="VINHO" style="text;align=left;verticalAlign=top;spacingLeft=4;spacingRight=4;overflow=hidden;rotatable=0;points=[[0,0.5],[1,0.5]];portConstraint=eastwest;rounded=0;" parent="QIKu43iznkj8tfLvrIEL-54" vertex="1">
          <mxGeometry y="156" width="160" height="26" as="geometry" />
        </mxCell>
        <mxCell id="kdAsW70PlrFogEJaz6tP-11" value="CERVEJA" style="text;align=left;verticalAlign=top;spacingLeft=4;spacingRight=4;overflow=hidden;rotatable=0;points=[[0,0.5],[1,0.5]];portConstraint=eastwest;rounded=0;" parent="QIKu43iznkj8tfLvrIEL-54" vertex="1">
          <mxGeometry y="182" width="160" height="26" as="geometry" />
        </mxCell>
        <mxCell id="QIKu43iznkj8tfLvrIEL-60" value="Pedido" style="swimlane;fontStyle=0;align=center;verticalAlign=top;childLayout=stackLayout;horizontal=1;startSize=26;horizontalStack=0;resizeParent=1;resizeLast=0;collapsible=1;marginBottom=0;rounded=0;shadow=0;strokeWidth=1;fillColor=#fff2cc;strokeColor=#d6b656;" parent="WIyWlLk6GJQsqaUBKTNV-1" vertex="1">
          <mxGeometry x="-310" y="160" width="340" height="320" as="geometry">
            <mxRectangle x="550" y="140" width="160" height="26" as="alternateBounds" />
          </mxGeometry>
        </mxCell>
        <mxCell id="QIKu43iznkj8tfLvrIEL-61" value="- cliente:Cliente" style="text;align=left;verticalAlign=top;spacingLeft=4;spacingRight=4;overflow=hidden;rotatable=0;points=[[0,0.5],[1,0.5]];portConstraint=eastwest;rounded=0;" parent="QIKu43iznkj8tfLvrIEL-60" vertex="1">
          <mxGeometry y="26" width="340" height="26" as="geometry" />
        </mxCell>
        <mxCell id="kdAsW70PlrFogEJaz6tP-23" value="- produtos:Produto[]" style="text;align=left;verticalAlign=top;spacingLeft=4;spacingRight=4;overflow=hidden;rotatable=0;points=[[0,0.5],[1,0.5]];portConstraint=eastwest;rounded=0;" parent="QIKu43iznkj8tfLvrIEL-60" vertex="1">
          <mxGeometry y="52" width="340" height="26" as="geometry" />
        </mxCell>
        <mxCell id="kdAsW70PlrFogEJaz6tP-2" value="- atendente:Atendente" style="text;align=left;verticalAlign=top;spacingLeft=4;spacingRight=4;overflow=hidden;rotatable=0;points=[[0,0.5],[1,0.5]];portConstraint=eastwest;rounded=0;" parent="QIKu43iznkj8tfLvrIEL-60" vertex="1">
          <mxGeometry y="78" width="340" height="26" as="geometry" />
        </mxCell>
        <mxCell id="kdAsW70PlrFogEJaz6tP-3" value="- valor:float" style="text;align=left;verticalAlign=top;spacingLeft=4;spacingRight=4;overflow=hidden;rotatable=0;points=[[0,0.5],[1,0.5]];portConstraint=eastwest;rounded=0;" parent="QIKu43iznkj8tfLvrIEL-60" vertex="1">
          <mxGeometry y="104" width="340" height="26" as="geometry" />
        </mxCell>
        <mxCell id="QIKu43iznkj8tfLvrIEL-62" value="- forma_pagamento:Forma_de_Pagamento" style="text;align=left;verticalAlign=top;spacingLeft=4;spacingRight=4;overflow=hidden;rotatable=0;points=[[0,0.5],[1,0.5]];portConstraint=eastwest;rounded=0;shadow=0;html=0;" parent="QIKu43iznkj8tfLvrIEL-60" vertex="1">
          <mxGeometry y="130" width="340" height="26" as="geometry" />
        </mxCell>
        <mxCell id="kdAsW70PlrFogEJaz6tP-12" value="- data:Date" style="text;align=left;verticalAlign=top;spacingLeft=4;spacingRight=4;overflow=hidden;rotatable=0;points=[[0,0.5],[1,0.5]];portConstraint=eastwest;rounded=0;" parent="QIKu43iznkj8tfLvrIEL-60" vertex="1">
          <mxGeometry y="156" width="340" height="26" as="geometry" />
        </mxCell>
        <mxCell id="kdAsW70PlrFogEJaz6tP-22" value="- entregue:bool" style="text;align=left;verticalAlign=top;spacingLeft=4;spacingRight=4;overflow=hidden;rotatable=0;points=[[0,0.5],[1,0.5]];portConstraint=eastwest;rounded=0;" parent="QIKu43iznkj8tfLvrIEL-60" vertex="1">
          <mxGeometry y="182" width="340" height="26" as="geometry" />
        </mxCell>
        <mxCell id="ZCnHrs2GG1sbxFjUJOWf-102" value="- codigo:int" style="text;align=left;verticalAlign=top;spacingLeft=4;spacingRight=4;overflow=hidden;rotatable=0;points=[[0,0.5],[1,0.5]];portConstraint=eastwest;rounded=0;" parent="QIKu43iznkj8tfLvrIEL-60" vertex="1">
          <mxGeometry y="208" width="340" height="26" as="geometry" />
        </mxCell>
        <mxCell id="QIKu43iznkj8tfLvrIEL-63" value="" style="line;html=1;strokeWidth=1;align=left;verticalAlign=middle;spacingTop=-1;spacingLeft=3;spacingRight=3;rotatable=0;labelPosition=right;points=[];portConstraint=eastwest;rounded=0;" parent="QIKu43iznkj8tfLvrIEL-60" vertex="1">
          <mxGeometry y="234" width="340" height="8" as="geometry" />
        </mxCell>
        <mxCell id="hOtxBI7cqi8a_a_TEYvA-33" value="+ &lt;&lt;create&gt;&gt; __init__(cliente, atendente, forma_pagamento)" style="text;align=left;verticalAlign=top;spacingLeft=4;spacingRight=4;overflow=hidden;rotatable=0;points=[[0,0.5],[1,0.5]];portConstraint=eastwest;rounded=0;" parent="QIKu43iznkj8tfLvrIEL-60" vertex="1">
          <mxGeometry y="242" width="340" height="26" as="geometry" />
        </mxCell>
        <mxCell id="hOtxBI7cqi8a_a_TEYvA-34" value="+ adicionar_produto(produto:Produto)" style="text;align=left;verticalAlign=top;spacingLeft=4;spacingRight=4;overflow=hidden;rotatable=0;points=[[0,0.5],[1,0.5]];portConstraint=eastwest;rounded=0;" parent="QIKu43iznkj8tfLvrIEL-60" vertex="1">
          <mxGeometry y="268" width="340" height="26" as="geometry" />
        </mxCell>
        <mxCell id="hOtxBI7cqi8a_a_TEYvA-35" value="+ calcula_preco()" style="text;align=left;verticalAlign=top;spacingLeft=4;spacingRight=4;overflow=hidden;rotatable=0;points=[[0,0.5],[1,0.5]];portConstraint=eastwest;rounded=0;" parent="QIKu43iznkj8tfLvrIEL-60" vertex="1">
          <mxGeometry y="294" width="340" height="26" as="geometry" />
        </mxCell>
        <mxCell id="QIKu43iznkj8tfLvrIEL-68" value="Forma_de_pagamento (enum)" style="swimlane;fontStyle=0;align=center;verticalAlign=top;childLayout=stackLayout;horizontal=1;startSize=26;horizontalStack=0;resizeParent=1;resizeLast=0;collapsible=1;marginBottom=0;rounded=0;shadow=0;strokeWidth=1;fillColor=#fff2cc;strokeColor=#d6b656;" parent="WIyWlLk6GJQsqaUBKTNV-1" vertex="1">
          <mxGeometry x="-300" y="585" width="220" height="140" as="geometry">
            <mxRectangle x="550" y="140" width="160" height="26" as="alternateBounds" />
          </mxGeometry>
        </mxCell>
        <mxCell id="QIKu43iznkj8tfLvrIEL-69" value="CARTAO DEBITO" style="text;align=left;verticalAlign=top;spacingLeft=4;spacingRight=4;overflow=hidden;rotatable=0;points=[[0,0.5],[1,0.5]];portConstraint=eastwest;rounded=0;" parent="QIKu43iznkj8tfLvrIEL-68" vertex="1">
          <mxGeometry y="26" width="220" height="26" as="geometry" />
        </mxCell>
        <mxCell id="QIKu43iznkj8tfLvrIEL-73" value="CARTAO CREDITO" style="text;align=left;verticalAlign=top;spacingLeft=4;spacingRight=4;overflow=hidden;rotatable=0;points=[[0,0.5],[1,0.5]];portConstraint=eastwest;rounded=0;" parent="QIKu43iznkj8tfLvrIEL-68" vertex="1">
          <mxGeometry y="52" width="220" height="26" as="geometry" />
        </mxCell>
        <mxCell id="QIKu43iznkj8tfLvrIEL-70" value="DINHEIRO" style="text;align=left;verticalAlign=top;spacingLeft=4;spacingRight=4;overflow=hidden;rotatable=0;points=[[0,0.5],[1,0.5]];portConstraint=eastwest;rounded=0;shadow=0;html=0;" parent="QIKu43iznkj8tfLvrIEL-68" vertex="1">
          <mxGeometry y="78" width="220" height="26" as="geometry" />
        </mxCell>
        <mxCell id="QIKu43iznkj8tfLvrIEL-72" value="PIX" style="text;align=left;verticalAlign=top;spacingLeft=4;spacingRight=4;overflow=hidden;rotatable=0;points=[[0,0.5],[1,0.5]];portConstraint=eastwest;rounded=0;" parent="QIKu43iznkj8tfLvrIEL-68" vertex="1">
          <mxGeometry y="104" width="220" height="26" as="geometry" />
        </mxCell>
        <mxCell id="QIKu43iznkj8tfLvrIEL-74" value="" style="endArrow=block;endFill=0;html=1;edgeStyle=orthogonalEdgeStyle;align=left;verticalAlign=top;rounded=0;entryX=0.5;entryY=1;entryDx=0;entryDy=0;exitX=0.5;exitY=0;exitDx=0;exitDy=0;" parent="WIyWlLk6GJQsqaUBKTNV-1" source="zkfFHV4jXpPFQw0GAbJ--6" target="zkfFHV4jXpPFQw0GAbJ--13" edge="1">
          <mxGeometry x="-1" relative="1" as="geometry">
            <mxPoint x="605" y="160" as="sourcePoint" />
            <mxPoint x="765" y="160" as="targetPoint" />
            <Array as="points">
              <mxPoint x="585" y="150" />
              <mxPoint x="715" y="150" />
            </Array>
          </mxGeometry>
        </mxCell>
        <mxCell id="QIKu43iznkj8tfLvrIEL-75" value="*" style="edgeLabel;resizable=0;html=1;align=left;verticalAlign=bottom;rounded=0;" parent="QIKu43iznkj8tfLvrIEL-74" connectable="0" vertex="1">
          <mxGeometry x="-1" relative="1" as="geometry" />
        </mxCell>
        <mxCell id="QIKu43iznkj8tfLvrIEL-76" value="" style="endArrow=block;endFill=0;html=1;edgeStyle=orthogonalEdgeStyle;align=left;verticalAlign=top;rounded=0;exitX=0.5;exitY=0;exitDx=0;exitDy=0;entryX=0.5;entryY=1;entryDx=0;entryDy=0;" parent="WIyWlLk6GJQsqaUBKTNV-1" target="zkfFHV4jXpPFQw0GAbJ--13" edge="1">
          <mxGeometry x="-1" relative="1" as="geometry">
            <mxPoint x="875" y="180" as="sourcePoint" />
            <mxPoint x="715" y="120" as="targetPoint" />
            <Array as="points">
              <mxPoint x="875" y="150" />
              <mxPoint x="725" y="150" />
            </Array>
          </mxGeometry>
        </mxCell>
        <mxCell id="QIKu43iznkj8tfLvrIEL-77" value="1...*" style="edgeLabel;resizable=0;html=1;align=left;verticalAlign=bottom;rounded=0;" parent="QIKu43iznkj8tfLvrIEL-76" connectable="0" vertex="1">
          <mxGeometry x="-1" relative="1" as="geometry">
            <mxPoint x="140" y="61" as="offset" />
          </mxGeometry>
        </mxCell>
        <mxCell id="QIKu43iznkj8tfLvrIEL-78" value="" style="endArrow=block;endFill=0;html=1;edgeStyle=orthogonalEdgeStyle;align=left;verticalAlign=top;rounded=0;entryX=0.5;entryY=1;entryDx=0;entryDy=0;" parent="WIyWlLk6GJQsqaUBKTNV-1" source="QIKu43iznkj8tfLvrIEL-21" edge="1">
          <mxGeometry x="-1" relative="1" as="geometry">
            <mxPoint x="705" y="350" as="sourcePoint" />
            <mxPoint x="855" y="320" as="targetPoint" />
            <Array as="points">
              <mxPoint x="990" y="350" />
              <mxPoint x="855" y="350" />
            </Array>
          </mxGeometry>
        </mxCell>
        <mxCell id="QIKu43iznkj8tfLvrIEL-79" value="0...*" style="edgeLabel;resizable=0;html=1;align=left;verticalAlign=bottom;rounded=0;" parent="QIKu43iznkj8tfLvrIEL-78" connectable="0" vertex="1">
          <mxGeometry x="-1" relative="1" as="geometry" />
        </mxCell>
        <mxCell id="QIKu43iznkj8tfLvrIEL-80" value="" style="endArrow=block;endFill=0;html=1;edgeStyle=orthogonalEdgeStyle;align=left;verticalAlign=top;rounded=0;" parent="WIyWlLk6GJQsqaUBKTNV-1" edge="1">
          <mxGeometry x="-1" relative="1" as="geometry">
            <mxPoint x="650" y="478" as="sourcePoint" />
            <mxPoint x="855" y="320" as="targetPoint" />
            <Array as="points">
              <mxPoint x="645" y="350" />
              <mxPoint x="855" y="350" />
            </Array>
          </mxGeometry>
        </mxCell>
        <mxCell id="QIKu43iznkj8tfLvrIEL-81" value="1...*" style="edgeLabel;resizable=0;html=1;align=left;verticalAlign=bottom;rounded=0;" parent="QIKu43iznkj8tfLvrIEL-80" connectable="0" vertex="1">
          <mxGeometry x="-1" relative="1" as="geometry" />
        </mxCell>
        <mxCell id="QIKu43iznkj8tfLvrIEL-82" value="" style="endArrow=block;endFill=0;html=1;edgeStyle=orthogonalEdgeStyle;align=left;verticalAlign=top;rounded=0;exitX=0.5;exitY=0;exitDx=0;exitDy=0;" parent="WIyWlLk6GJQsqaUBKTNV-1" source="QIKu43iznkj8tfLvrIEL-27" edge="1">
          <mxGeometry x="-1" relative="1" as="geometry">
            <mxPoint x="845" y="380" as="sourcePoint" />
            <mxPoint x="855" y="320" as="targetPoint" />
            <Array as="points">
              <mxPoint x="1303" y="400" />
              <mxPoint x="1035" y="400" />
              <mxPoint x="1035" y="350" />
              <mxPoint x="855" y="350" />
            </Array>
          </mxGeometry>
        </mxCell>
        <mxCell id="QIKu43iznkj8tfLvrIEL-83" value="1...*" style="edgeLabel;resizable=0;html=1;align=left;verticalAlign=bottom;rounded=0;" parent="QIKu43iznkj8tfLvrIEL-82" connectable="0" vertex="1">
          <mxGeometry x="-1" relative="1" as="geometry" />
        </mxCell>
        <mxCell id="QIKu43iznkj8tfLvrIEL-84" value="" style="endArrow=block;endFill=0;html=1;edgeStyle=orthogonalEdgeStyle;align=left;verticalAlign=top;rounded=0;exitX=0.5;exitY=0;exitDx=0;exitDy=0;" parent="WIyWlLk6GJQsqaUBKTNV-1" source="QIKu43iznkj8tfLvrIEL-9" edge="1">
          <mxGeometry x="-1" relative="1" as="geometry">
            <mxPoint x="655" y="380" as="sourcePoint" />
            <mxPoint x="855" y="320" as="targetPoint" />
            <Array as="points">
              <mxPoint x="395" y="350" />
              <mxPoint x="855" y="350" />
            </Array>
          </mxGeometry>
        </mxCell>
        <mxCell id="QIKu43iznkj8tfLvrIEL-85" value="1...*" style="edgeLabel;resizable=0;html=1;align=left;verticalAlign=bottom;rounded=0;" parent="QIKu43iznkj8tfLvrIEL-84" connectable="0" vertex="1">
          <mxGeometry x="-1" relative="1" as="geometry" />
        </mxCell>
        <mxCell id="QIKu43iznkj8tfLvrIEL-86" value="" style="endArrow=block;endFill=0;html=1;edgeStyle=orthogonalEdgeStyle;align=left;verticalAlign=top;rounded=0;exitX=0.5;exitY=0;exitDx=0;exitDy=0;" parent="WIyWlLk6GJQsqaUBKTNV-1" source="QIKu43iznkj8tfLvrIEL-36" edge="1">
          <mxGeometry x="-1" relative="1" as="geometry">
            <mxPoint x="-1380" y="226" as="sourcePoint" />
            <mxPoint x="-1120" y="226" as="targetPoint" />
            <Array as="points">
              <mxPoint x="-1290" y="246" />
              <mxPoint x="-1120" y="246" />
            </Array>
          </mxGeometry>
        </mxCell>
        <mxCell id="QIKu43iznkj8tfLvrIEL-87" value="1...*" style="edgeLabel;resizable=0;html=1;align=left;verticalAlign=bottom;rounded=0;" parent="QIKu43iznkj8tfLvrIEL-86" connectable="0" vertex="1">
          <mxGeometry x="-1" relative="1" as="geometry">
            <mxPoint x="-50" y="-4" as="offset" />
          </mxGeometry>
        </mxCell>
        <mxCell id="QIKu43iznkj8tfLvrIEL-88" value="" style="endArrow=block;endFill=0;html=1;edgeStyle=orthogonalEdgeStyle;align=left;verticalAlign=top;rounded=0;exitX=0.5;exitY=0;exitDx=0;exitDy=0;" parent="WIyWlLk6GJQsqaUBKTNV-1" source="QIKu43iznkj8tfLvrIEL-42" edge="1">
          <mxGeometry x="-1" relative="1" as="geometry">
            <mxPoint x="-1080" y="276" as="sourcePoint" />
            <mxPoint x="-1120" y="226" as="targetPoint" />
            <Array as="points">
              <mxPoint x="-960" y="246" />
              <mxPoint x="-1120" y="246" />
            </Array>
          </mxGeometry>
        </mxCell>
        <mxCell id="QIKu43iznkj8tfLvrIEL-89" value="1...*" style="edgeLabel;resizable=0;html=1;align=left;verticalAlign=bottom;rounded=0;" parent="QIKu43iznkj8tfLvrIEL-88" connectable="0" vertex="1">
          <mxGeometry x="-1" relative="1" as="geometry">
            <mxPoint x="15" y="-2" as="offset" />
          </mxGeometry>
        </mxCell>
        <mxCell id="QIKu43iznkj8tfLvrIEL-90" value="" style="endArrow=none;endFill=0;endSize=24;html=1;rounded=0;entryX=0.5;entryY=1;entryDx=0;entryDy=0;exitX=0.5;exitY=0;exitDx=0;exitDy=0;startArrow=openThin;startFill=0;" parent="WIyWlLk6GJQsqaUBKTNV-1" source="QIKu43iznkj8tfLvrIEL-48" target="QIKu43iznkj8tfLvrIEL-36" edge="1">
          <mxGeometry width="160" relative="1" as="geometry">
            <mxPoint x="-1310" y="426" as="sourcePoint" />
            <mxPoint x="-1150" y="426" as="targetPoint" />
          </mxGeometry>
        </mxCell>
        <mxCell id="QIKu43iznkj8tfLvrIEL-91" value="" style="endArrow=none;endFill=0;endSize=24;html=1;rounded=0;entryX=0.5;entryY=1;entryDx=0;entryDy=0;exitX=0.5;exitY=0;exitDx=0;exitDy=0;startArrow=openThin;startFill=0;" parent="WIyWlLk6GJQsqaUBKTNV-1" edge="1">
          <mxGeometry width="160" relative="1" as="geometry">
            <mxPoint x="-950" y="456" as="sourcePoint" />
            <mxPoint x="-950" y="406" as="targetPoint" />
          </mxGeometry>
        </mxCell>
        <mxCell id="QIKu43iznkj8tfLvrIEL-92" value="" style="endArrow=open;startArrow=none;endFill=0;startFill=0;html=1;rounded=0;entryX=0.003;entryY=0.281;entryDx=0;entryDy=0;entryPerimeter=0;exitX=1.005;exitY=0.034;exitDx=0;exitDy=0;exitPerimeter=0;" parent="WIyWlLk6GJQsqaUBKTNV-1" edge="1">
          <mxGeometry width="160" relative="1" as="geometry">
            <mxPoint x="30.000000000000274" y="190.00400000000025" as="sourcePoint" />
            <mxPoint x="394.20000000000056" y="190.42599999999982" as="targetPoint" />
            <Array as="points" />
          </mxGeometry>
        </mxCell>
        <mxCell id="QIKu43iznkj8tfLvrIEL-93" value="" style="endArrow=none;endFill=0;endSize=24;html=1;rounded=0;exitX=0.5;exitY=0;exitDx=0;exitDy=0;startArrow=openThin;startFill=0;" parent="WIyWlLk6GJQsqaUBKTNV-1" source="QIKu43iznkj8tfLvrIEL-68" edge="1">
          <mxGeometry width="160" relative="1" as="geometry">
            <mxPoint x="-190" y="350" as="sourcePoint" />
            <mxPoint x="-190" y="480" as="targetPoint" />
          </mxGeometry>
        </mxCell>
        <mxCell id="kdAsW70PlrFogEJaz6tP-4" value="" style="endArrow=open;startArrow=none;endFill=0;startFill=0;html=1;rounded=0;exitX=1;exitY=0.5;exitDx=0;exitDy=0;" parent="WIyWlLk6GJQsqaUBKTNV-1" source="kdAsW70PlrFogEJaz6tP-3" edge="1">
          <mxGeometry width="160" relative="1" as="geometry">
            <mxPoint x="-96" y="120" as="sourcePoint" />
            <mxPoint x="1140" y="610" as="targetPoint" />
            <Array as="points">
              <mxPoint x="60" y="277" />
              <mxPoint x="60" y="630" />
              <mxPoint x="1140" y="630" />
            </Array>
          </mxGeometry>
        </mxCell>
        <mxCell id="kdAsW70PlrFogEJaz6tP-24" value="" style="endArrow=open;startArrow=diamondThin;endFill=0;startFill=0;html=1;rounded=0;exitX=0.25;exitY=0;exitDx=0;exitDy=0;entryX=0.5;entryY=0;entryDx=0;entryDy=0;jumpSize=10;" parent="WIyWlLk6GJQsqaUBKTNV-1" source="QIKu43iznkj8tfLvrIEL-60" target="QIKu43iznkj8tfLvrIEL-0" edge="1">
          <mxGeometry width="160" relative="1" as="geometry">
            <mxPoint x="-86" y="130" as="sourcePoint" />
            <mxPoint x="1140" y="-110" as="targetPoint" />
            <Array as="points">
              <mxPoint x="-225" y="-130" />
              <mxPoint x="-1140" y="-130" />
            </Array>
          </mxGeometry>
        </mxCell>
        <mxCell id="kdAsW70PlrFogEJaz6tP-26" value="Pizzaria" style="swimlane;fontStyle=0;align=center;verticalAlign=top;childLayout=stackLayout;horizontal=1;startSize=26;horizontalStack=0;resizeParent=1;resizeLast=0;collapsible=1;marginBottom=0;rounded=0;shadow=0;strokeWidth=1;fillColor=#fff2cc;strokeColor=#d6b656;" parent="WIyWlLk6GJQsqaUBKTNV-1" vertex="1">
          <mxGeometry x="-160" y="-350" width="220" height="190" as="geometry">
            <mxRectangle x="550" y="140" width="160" height="26" as="alternateBounds" />
          </mxGeometry>
        </mxCell>
        <mxCell id="kdAsW70PlrFogEJaz6tP-27" value="- receita:float" style="text;align=left;verticalAlign=top;spacingLeft=4;spacingRight=4;overflow=hidden;rotatable=0;points=[[0,0.5],[1,0.5]];portConstraint=eastwest;rounded=0;" parent="kdAsW70PlrFogEJaz6tP-26" vertex="1">
          <mxGeometry y="26" width="220" height="26" as="geometry" />
        </mxCell>
        <mxCell id="kdAsW70PlrFogEJaz6tP-28" value="- despesas:float&#xa;" style="text;align=left;verticalAlign=top;spacingLeft=4;spacingRight=4;overflow=hidden;rotatable=0;points=[[0,0.5],[1,0.5]];portConstraint=eastwest;rounded=0;" parent="kdAsW70PlrFogEJaz6tP-26" vertex="1">
          <mxGeometry y="52" width="220" height="26" as="geometry" />
        </mxCell>
        <mxCell id="kdAsW70PlrFogEJaz6tP-29" value="- total_salarios:float" style="text;align=left;verticalAlign=top;spacingLeft=4;spacingRight=4;overflow=hidden;rotatable=0;points=[[0,0.5],[1,0.5]];portConstraint=eastwest;rounded=0;" parent="kdAsW70PlrFogEJaz6tP-26" vertex="1">
          <mxGeometry y="78" width="220" height="26" as="geometry" />
        </mxCell>
        <mxCell id="kdAsW70PlrFogEJaz6tP-30" value="- produto_mais_vendido:Produto" style="text;align=left;verticalAlign=top;spacingLeft=4;spacingRight=4;overflow=hidden;rotatable=0;points=[[0,0.5],[1,0.5]];portConstraint=eastwest;rounded=0;" parent="kdAsW70PlrFogEJaz6tP-26" vertex="1">
          <mxGeometry y="104" width="220" height="26" as="geometry" />
        </mxCell>
        <mxCell id="kdAsW70PlrFogEJaz6tP-31" value="- atendende_do_mes:Atendente" style="text;align=left;verticalAlign=top;spacingLeft=4;spacingRight=4;overflow=hidden;rotatable=0;points=[[0,0.5],[1,0.5]];portConstraint=eastwest;rounded=0;" parent="kdAsW70PlrFogEJaz6tP-26" vertex="1">
          <mxGeometry y="130" width="220" height="26" as="geometry" />
        </mxCell>
        <mxCell id="kdAsW70PlrFogEJaz6tP-32" value="" style="line;html=1;strokeWidth=1;align=left;verticalAlign=middle;spacingTop=-1;spacingLeft=3;spacingRight=3;rotatable=0;labelPosition=right;points=[];portConstraint=eastwest;rounded=0;" parent="kdAsW70PlrFogEJaz6tP-26" vertex="1">
          <mxGeometry y="156" width="220" height="8" as="geometry" />
        </mxCell>
        <mxCell id="hOtxBI7cqi8a_a_TEYvA-37" value="+ &lt;&lt;create&gt;&gt; __init__()" style="text;align=left;verticalAlign=top;spacingLeft=4;spacingRight=4;overflow=hidden;rotatable=0;points=[[0,0.5],[1,0.5]];portConstraint=eastwest;rounded=0;" parent="kdAsW70PlrFogEJaz6tP-26" vertex="1">
          <mxGeometry y="164" width="220" height="26" as="geometry" />
        </mxCell>
        <mxCell id="kdAsW70PlrFogEJaz6tP-34" value="" style="endArrow=open;startArrow=none;endFill=0;startFill=0;html=1;rounded=0;entryX=0.645;entryY=-0.005;entryDx=0;entryDy=0;entryPerimeter=0;exitX=0;exitY=0.5;exitDx=0;exitDy=0;" parent="WIyWlLk6GJQsqaUBKTNV-1" source="34jW8y6ZJVeA6K0mkwZz-20" target="34jW8y6ZJVeA6K0mkwZz-26" edge="1">
          <mxGeometry width="160" relative="1" as="geometry">
            <mxPoint x="-160" y="-450" as="sourcePoint" />
            <mxPoint x="-890" y="-290" as="targetPoint" />
            <Array as="points">
              <mxPoint x="-1818" y="-510" />
            </Array>
          </mxGeometry>
        </mxCell>
        <mxCell id="kdAsW70PlrFogEJaz6tP-35" value="" style="endArrow=open;startArrow=none;endFill=0;startFill=0;html=1;rounded=0;entryX=1.001;entryY=0.988;entryDx=0;entryDy=0;entryPerimeter=0;" parent="WIyWlLk6GJQsqaUBKTNV-1" target="34jW8y6ZJVeA6K0mkwZz-13" edge="1">
          <mxGeometry width="160" relative="1" as="geometry">
            <mxPoint x="60" y="-450" as="sourcePoint" />
            <mxPoint x="790" y="410" as="targetPoint" />
            <Array as="points">
              <mxPoint x="1490" y="-450" />
              <mxPoint x="1490" y="233" />
            </Array>
          </mxGeometry>
        </mxCell>
        <mxCell id="kdAsW70PlrFogEJaz6tP-36" value="Estoque" style="swimlane;fontStyle=0;align=center;verticalAlign=top;childLayout=stackLayout;horizontal=1;startSize=26;horizontalStack=0;resizeParent=1;resizeLast=0;collapsible=1;marginBottom=0;rounded=0;shadow=0;strokeWidth=1;fillColor=#fff2cc;strokeColor=#d6b656;" parent="WIyWlLk6GJQsqaUBKTNV-1" vertex="1">
          <mxGeometry x="-2290" y="-114" width="260" height="228" as="geometry">
            <mxRectangle x="550" y="140" width="160" height="26" as="alternateBounds" />
          </mxGeometry>
        </mxCell>
        <mxCell id="kdAsW70PlrFogEJaz6tP-44" value="- queijo_kg:float" style="text;align=left;verticalAlign=top;spacingLeft=4;spacingRight=4;overflow=hidden;rotatable=0;points=[[0,0.5],[1,0.5]];portConstraint=eastwest;rounded=0;" parent="kdAsW70PlrFogEJaz6tP-36" vertex="1">
          <mxGeometry y="26" width="260" height="26" as="geometry" />
        </mxCell>
        <mxCell id="kdAsW70PlrFogEJaz6tP-45" value="- tomates_kg:float" style="text;align=left;verticalAlign=top;spacingLeft=4;spacingRight=4;overflow=hidden;rotatable=0;points=[[0,0.5],[1,0.5]];portConstraint=eastwest;rounded=0;" parent="kdAsW70PlrFogEJaz6tP-36" vertex="1">
          <mxGeometry y="52" width="260" height="26" as="geometry" />
        </mxCell>
        <mxCell id="kdAsW70PlrFogEJaz6tP-46" value="- calabresa_kg:float" style="text;align=left;verticalAlign=top;spacingLeft=4;spacingRight=4;overflow=hidden;rotatable=0;points=[[0,0.5],[1,0.5]];portConstraint=eastwest;rounded=0;" parent="kdAsW70PlrFogEJaz6tP-36" vertex="1">
          <mxGeometry y="78" width="260" height="26" as="geometry" />
        </mxCell>
        <mxCell id="kdAsW70PlrFogEJaz6tP-47" value="- frango_kg:float" style="text;align=left;verticalAlign=top;spacingLeft=4;spacingRight=4;overflow=hidden;rotatable=0;points=[[0,0.5],[1,0.5]];portConstraint=eastwest;rounded=0;" parent="kdAsW70PlrFogEJaz6tP-36" vertex="1">
          <mxGeometry y="104" width="260" height="26" as="geometry" />
        </mxCell>
        <mxCell id="hOtxBI7cqi8a_a_TEYvA-17" value="- molho_tomate_saco:float" style="text;align=left;verticalAlign=top;spacingLeft=4;spacingRight=4;overflow=hidden;rotatable=0;points=[[0,0.5],[1,0.5]];portConstraint=eastwest;rounded=0;" parent="kdAsW70PlrFogEJaz6tP-36" vertex="1">
          <mxGeometry y="130" width="260" height="26" as="geometry" />
        </mxCell>
        <mxCell id="hOtxBI7cqi8a_a_TEYvA-18" value="- cebola_kg:float" style="text;align=left;verticalAlign=top;spacingLeft=4;spacingRight=4;overflow=hidden;rotatable=0;points=[[0,0.5],[1,0.5]];portConstraint=eastwest;rounded=0;" parent="kdAsW70PlrFogEJaz6tP-36" vertex="1">
          <mxGeometry y="156" width="260" height="26" as="geometry" />
        </mxCell>
        <mxCell id="kdAsW70PlrFogEJaz6tP-38" value="" style="line;html=1;strokeWidth=1;align=left;verticalAlign=middle;spacingTop=-1;spacingLeft=3;spacingRight=3;rotatable=0;labelPosition=right;points=[];portConstraint=eastwest;rounded=0;" parent="kdAsW70PlrFogEJaz6tP-36" vertex="1">
          <mxGeometry y="182" width="260" height="20" as="geometry" />
        </mxCell>
        <mxCell id="hOtxBI7cqi8a_a_TEYvA-31" value="+ &lt;&lt;create&gt;&gt; __init__()" style="text;align=left;verticalAlign=top;spacingLeft=4;spacingRight=4;overflow=hidden;rotatable=0;points=[[0,0.5],[1,0.5]];portConstraint=eastwest;rounded=0;" parent="kdAsW70PlrFogEJaz6tP-36" vertex="1">
          <mxGeometry y="202" width="260" height="26" as="geometry" />
        </mxCell>
        <mxCell id="kdAsW70PlrFogEJaz6tP-40" value="" style="endArrow=open;startArrow=none;endFill=0;startFill=0;html=1;rounded=0;exitX=0;exitY=0.5;exitDx=0;exitDy=0;dashed=1;dashPattern=8 8;entryX=0.579;entryY=1.067;entryDx=0;entryDy=0;entryPerimeter=0;" parent="WIyWlLk6GJQsqaUBKTNV-1" source="kdAsW70PlrFogEJaz6tP-39" target="hOtxBI7cqi8a_a_TEYvA-31" edge="1">
          <mxGeometry width="160" relative="1" as="geometry">
            <mxPoint x="-1380.96" y="342.99800000000005" as="sourcePoint" />
            <mxPoint x="-1470" y="230" as="targetPoint" />
            <Array as="points">
              <mxPoint x="-2140" y="360" />
            </Array>
          </mxGeometry>
        </mxCell>
        <mxCell id="kdAsW70PlrFogEJaz6tP-43" value="" style="endArrow=open;startArrow=none;endFill=0;startFill=0;html=1;rounded=0;exitX=0;exitY=0.75;exitDx=0;exitDy=0;dashed=1;dashPattern=8 8;entryX=0.175;entryY=1.163;entryDx=0;entryDy=0;entryPerimeter=0;" parent="WIyWlLk6GJQsqaUBKTNV-1" source="QIKu43iznkj8tfLvrIEL-42" target="hOtxBI7cqi8a_a_TEYvA-31" edge="1">
          <mxGeometry width="160" relative="1" as="geometry">
            <mxPoint x="-1410" y="339" as="sourcePoint" />
            <mxPoint x="-1490" y="230" as="targetPoint" />
            <Array as="points">
              <mxPoint x="-1110" y="371" />
              <mxPoint x="-1110" y="436" />
              <mxPoint x="-2250" y="430" />
            </Array>
          </mxGeometry>
        </mxCell>
        <mxCell id="34jW8y6ZJVeA6K0mkwZz-0" value="Controlador_Pizzaria" style="swimlane;fontStyle=0;align=center;verticalAlign=top;childLayout=stackLayout;horizontal=1;startSize=26;horizontalStack=0;resizeParent=1;resizeLast=0;collapsible=1;marginBottom=0;rounded=0;shadow=0;strokeWidth=1;fillColor=#d5e8d4;strokeColor=#82b366;" parent="WIyWlLk6GJQsqaUBKTNV-1" vertex="1">
          <mxGeometry x="-160" y="-560" width="220" height="190" as="geometry">
            <mxRectangle x="550" y="140" width="160" height="26" as="alternateBounds" />
          </mxGeometry>
        </mxCell>
        <mxCell id="34jW8y6ZJVeA6K0mkwZz-20" value="- pizzaria:Pizzaria" style="text;align=left;verticalAlign=top;spacingLeft=4;spacingRight=4;overflow=hidden;rotatable=0;points=[[0,0.5],[1,0.5]];portConstraint=eastwest;rounded=0;" parent="34jW8y6ZJVeA6K0mkwZz-0" vertex="1">
          <mxGeometry y="26" width="220" height="26" as="geometry" />
        </mxCell>
        <mxCell id="34jW8y6ZJVeA6K0mkwZz-6" value="" style="line;html=1;strokeWidth=1;align=left;verticalAlign=middle;spacingTop=-1;spacingLeft=3;spacingRight=3;rotatable=0;labelPosition=right;points=[];portConstraint=eastwest;rounded=0;" parent="34jW8y6ZJVeA6K0mkwZz-0" vertex="1">
          <mxGeometry y="52" width="220" height="8" as="geometry" />
        </mxCell>
        <mxCell id="hOtxBI7cqi8a_a_TEYvA-38" value="+ &lt;&lt;create&gt;&gt; __init__()" style="text;align=left;verticalAlign=top;spacingLeft=4;spacingRight=4;overflow=hidden;rotatable=0;points=[[0,0.5],[1,0.5]];portConstraint=eastwest;rounded=0;" parent="34jW8y6ZJVeA6K0mkwZz-0" vertex="1">
          <mxGeometry y="60" width="220" height="26" as="geometry" />
        </mxCell>
        <mxCell id="kdAsW70PlrFogEJaz6tP-33" value="+ pegar_lucro()&#xa;" style="text;align=left;verticalAlign=top;spacingLeft=4;spacingRight=4;overflow=hidden;rotatable=0;points=[[0,0.5],[1,0.5]];portConstraint=eastwest;rounded=0;" parent="34jW8y6ZJVeA6K0mkwZz-0" vertex="1">
          <mxGeometry y="86" width="220" height="26" as="geometry" />
        </mxCell>
        <mxCell id="34jW8y6ZJVeA6K0mkwZz-21" value="+ calcular_receitas()&#xa;" style="text;align=left;verticalAlign=top;spacingLeft=4;spacingRight=4;overflow=hidden;rotatable=0;points=[[0,0.5],[1,0.5]];portConstraint=eastwest;rounded=0;" parent="34jW8y6ZJVeA6K0mkwZz-0" vertex="1">
          <mxGeometry y="112" width="220" height="26" as="geometry" />
        </mxCell>
        <mxCell id="34jW8y6ZJVeA6K0mkwZz-22" value="+ calcular_despesas()&#xa;" style="text;align=left;verticalAlign=top;spacingLeft=4;spacingRight=4;overflow=hidden;rotatable=0;points=[[0,0.5],[1,0.5]];portConstraint=eastwest;rounded=0;" parent="34jW8y6ZJVeA6K0mkwZz-0" vertex="1">
          <mxGeometry y="138" width="220" height="26" as="geometry" />
        </mxCell>
        <mxCell id="34jW8y6ZJVeA6K0mkwZz-24" value="+ calcular_total_salarios()&#xa;" style="text;align=left;verticalAlign=top;spacingLeft=4;spacingRight=4;overflow=hidden;rotatable=0;points=[[0,0.5],[1,0.5]];portConstraint=eastwest;rounded=0;" parent="34jW8y6ZJVeA6K0mkwZz-0" vertex="1">
          <mxGeometry y="164" width="220" height="26" as="geometry" />
        </mxCell>
        <mxCell id="34jW8y6ZJVeA6K0mkwZz-9" value="Controlador_Funcionario" style="swimlane;fontStyle=0;align=center;verticalAlign=top;childLayout=stackLayout;horizontal=1;startSize=26;horizontalStack=0;resizeParent=1;resizeLast=0;collapsible=1;marginBottom=0;rounded=0;shadow=0;strokeWidth=1;fillColor=#d5e8d4;strokeColor=#82b366;" parent="WIyWlLk6GJQsqaUBKTNV-1" vertex="1">
          <mxGeometry x="1095" y="155" width="225" height="216" as="geometry">
            <mxRectangle x="550" y="140" width="160" height="26" as="alternateBounds" />
          </mxGeometry>
        </mxCell>
        <mxCell id="34jW8y6ZJVeA6K0mkwZz-10" value="-lista_Atendentes:Atendente[]" style="text;align=left;verticalAlign=top;spacingLeft=4;spacingRight=4;overflow=hidden;rotatable=0;points=[[0,0.5],[1,0.5]];portConstraint=eastwest;rounded=0;" parent="34jW8y6ZJVeA6K0mkwZz-9" vertex="1">
          <mxGeometry y="26" width="225" height="26" as="geometry" />
        </mxCell>
        <mxCell id="34jW8y6ZJVeA6K0mkwZz-13" value="-lista_Outros_Funcionarios:Funcionario[]" style="text;align=left;verticalAlign=top;spacingLeft=4;spacingRight=4;overflow=hidden;rotatable=0;points=[[0,0.5],[1,0.5]];portConstraint=eastwest;rounded=0;" parent="34jW8y6ZJVeA6K0mkwZz-9" vertex="1">
          <mxGeometry y="52" width="225" height="26" as="geometry" />
        </mxCell>
        <mxCell id="34jW8y6ZJVeA6K0mkwZz-11" value="" style="line;html=1;strokeWidth=1;align=left;verticalAlign=middle;spacingTop=-1;spacingLeft=3;spacingRight=3;rotatable=0;labelPosition=right;points=[];portConstraint=eastwest;rounded=0;" parent="34jW8y6ZJVeA6K0mkwZz-9" vertex="1">
          <mxGeometry y="78" width="225" height="8" as="geometry" />
        </mxCell>
        <mxCell id="hOtxBI7cqi8a_a_TEYvA-10" value="+ &lt;&lt;create&gt;&gt; __init__()" style="text;align=left;verticalAlign=top;spacingLeft=4;spacingRight=4;overflow=hidden;rotatable=0;points=[[0,0.5],[1,0.5]];portConstraint=eastwest;rounded=0;" parent="34jW8y6ZJVeA6K0mkwZz-9" vertex="1">
          <mxGeometry y="86" width="225" height="26" as="geometry" />
        </mxCell>
        <mxCell id="ZCnHrs2GG1sbxFjUJOWf-38" value="+ cadastrar_funcionario()" style="text;align=left;verticalAlign=top;spacingLeft=4;spacingRight=4;overflow=hidden;rotatable=0;points=[[0,0.5],[1,0.5]];portConstraint=eastwest;rounded=0;" parent="34jW8y6ZJVeA6K0mkwZz-9" vertex="1">
          <mxGeometry y="112" width="225" height="26" as="geometry" />
        </mxCell>
        <mxCell id="ZCnHrs2GG1sbxFjUJOWf-39" value="+ deletar_funcionario()" style="text;align=left;verticalAlign=top;spacingLeft=4;spacingRight=4;overflow=hidden;rotatable=0;points=[[0,0.5],[1,0.5]];portConstraint=eastwest;rounded=0;" parent="34jW8y6ZJVeA6K0mkwZz-9" vertex="1">
          <mxGeometry y="138" width="225" height="26" as="geometry" />
        </mxCell>
        <mxCell id="ZCnHrs2GG1sbxFjUJOWf-41" value="+ ver_funcionarios()" style="text;align=left;verticalAlign=top;spacingLeft=4;spacingRight=4;overflow=hidden;rotatable=0;points=[[0,0.5],[1,0.5]];portConstraint=eastwest;rounded=0;" parent="34jW8y6ZJVeA6K0mkwZz-9" vertex="1">
          <mxGeometry y="164" width="225" height="26" as="geometry" />
        </mxCell>
        <mxCell id="ZCnHrs2GG1sbxFjUJOWf-40" value="+ modificar_funcionario()" style="text;align=left;verticalAlign=top;spacingLeft=4;spacingRight=4;overflow=hidden;rotatable=0;points=[[0,0.5],[1,0.5]];portConstraint=eastwest;rounded=0;" parent="34jW8y6ZJVeA6K0mkwZz-9" vertex="1">
          <mxGeometry y="190" width="225" height="26" as="geometry" />
        </mxCell>
        <mxCell id="34jW8y6ZJVeA6K0mkwZz-14" style="edgeStyle=orthogonalEdgeStyle;rounded=0;orthogonalLoop=1;jettySize=auto;html=1;entryX=0;entryY=0.308;entryDx=0;entryDy=0;entryPerimeter=0;exitX=0;exitY=0.911;exitDx=0;exitDy=0;exitPerimeter=0;endArrow=open;endFill=0;" parent="WIyWlLk6GJQsqaUBKTNV-1" source="34jW8y6ZJVeA6K0mkwZz-24" target="kdAsW70PlrFogEJaz6tP-28" edge="1">
          <mxGeometry relative="1" as="geometry">
            <mxPoint x="-210" y="-380" as="sourcePoint" />
          </mxGeometry>
        </mxCell>
        <mxCell id="34jW8y6ZJVeA6K0mkwZz-19" style="edgeStyle=orthogonalEdgeStyle;rounded=0;orthogonalLoop=1;jettySize=auto;html=1;entryX=0.304;entryY=0.015;entryDx=0;entryDy=0;entryPerimeter=0;endArrow=open;endFill=0;" parent="WIyWlLk6GJQsqaUBKTNV-1" source="34jW8y6ZJVeA6K0mkwZz-15" target="zkfFHV4jXpPFQw0GAbJ--6" edge="1">
          <mxGeometry relative="1" as="geometry" />
        </mxCell>
        <mxCell id="34jW8y6ZJVeA6K0mkwZz-15" value="Controlador_Cliente" style="swimlane;fontStyle=0;align=center;verticalAlign=top;childLayout=stackLayout;horizontal=1;startSize=26;horizontalStack=0;resizeParent=1;resizeLast=0;collapsible=1;marginBottom=0;rounded=0;shadow=0;strokeWidth=1;fillColor=#d5e8d4;strokeColor=#82b366;" parent="WIyWlLk6GJQsqaUBKTNV-1" vertex="1">
          <mxGeometry x="339" y="-76" width="225" height="216" as="geometry">
            <mxRectangle x="550" y="140" width="160" height="26" as="alternateBounds" />
          </mxGeometry>
        </mxCell>
        <mxCell id="34jW8y6ZJVeA6K0mkwZz-16" value="-lista_Clientes:Cliente[]" style="text;align=left;verticalAlign=top;spacingLeft=4;spacingRight=4;overflow=hidden;rotatable=0;points=[[0,0.5],[1,0.5]];portConstraint=eastwest;rounded=0;" parent="34jW8y6ZJVeA6K0mkwZz-15" vertex="1">
          <mxGeometry y="26" width="225" height="26" as="geometry" />
        </mxCell>
        <mxCell id="34jW8y6ZJVeA6K0mkwZz-18" value="" style="line;html=1;strokeWidth=1;align=left;verticalAlign=middle;spacingTop=-1;spacingLeft=3;spacingRight=3;rotatable=0;labelPosition=right;points=[];portConstraint=eastwest;rounded=0;" parent="34jW8y6ZJVeA6K0mkwZz-15" vertex="1">
          <mxGeometry y="52" width="225" height="8" as="geometry" />
        </mxCell>
        <mxCell id="hOtxBI7cqi8a_a_TEYvA-21" value="+ &lt;&lt;create&gt;&gt; __init__()" style="text;align=left;verticalAlign=top;spacingLeft=4;spacingRight=4;overflow=hidden;rotatable=0;points=[[0,0.5],[1,0.5]];portConstraint=eastwest;rounded=0;" parent="34jW8y6ZJVeA6K0mkwZz-15" vertex="1">
          <mxGeometry y="60" width="225" height="26" as="geometry" />
        </mxCell>
        <mxCell id="ZCnHrs2GG1sbxFjUJOWf-63" value="+ cadastrar_cliente()" style="text;align=left;verticalAlign=top;spacingLeft=4;spacingRight=4;overflow=hidden;rotatable=0;points=[[0,0.5],[1,0.5]];portConstraint=eastwest;rounded=0;" parent="34jW8y6ZJVeA6K0mkwZz-15" vertex="1">
          <mxGeometry y="86" width="225" height="26" as="geometry" />
        </mxCell>
        <mxCell id="ZCnHrs2GG1sbxFjUJOWf-64" value="+ deletar_cliente()" style="text;align=left;verticalAlign=top;spacingLeft=4;spacingRight=4;overflow=hidden;rotatable=0;points=[[0,0.5],[1,0.5]];portConstraint=eastwest;rounded=0;" parent="34jW8y6ZJVeA6K0mkwZz-15" vertex="1">
          <mxGeometry y="112" width="225" height="26" as="geometry" />
        </mxCell>
        <mxCell id="ZCnHrs2GG1sbxFjUJOWf-66" value="+ modificar_cliente()" style="text;align=left;verticalAlign=top;spacingLeft=4;spacingRight=4;overflow=hidden;rotatable=0;points=[[0,0.5],[1,0.5]];portConstraint=eastwest;rounded=0;" parent="34jW8y6ZJVeA6K0mkwZz-15" vertex="1">
          <mxGeometry y="138" width="225" height="26" as="geometry" />
        </mxCell>
        <mxCell id="ZCnHrs2GG1sbxFjUJOWf-65" value="+ ver_clientes()" style="text;align=left;verticalAlign=top;spacingLeft=4;spacingRight=4;overflow=hidden;rotatable=0;points=[[0,0.5],[1,0.5]];portConstraint=eastwest;rounded=0;" parent="34jW8y6ZJVeA6K0mkwZz-15" vertex="1">
          <mxGeometry y="164" width="225" height="26" as="geometry" />
        </mxCell>
        <mxCell id="ZCnHrs2GG1sbxFjUJOWf-108" value="+ ver_clientes_fieis()" style="text;align=left;verticalAlign=top;spacingLeft=4;spacingRight=4;overflow=hidden;rotatable=0;points=[[0,0.5],[1,0.5]];portConstraint=eastwest;rounded=0;" parent="34jW8y6ZJVeA6K0mkwZz-15" vertex="1">
          <mxGeometry y="190" width="225" height="26" as="geometry" />
        </mxCell>
        <mxCell id="34jW8y6ZJVeA6K0mkwZz-23" style="edgeStyle=orthogonalEdgeStyle;rounded=0;orthogonalLoop=1;jettySize=auto;html=1;entryX=0.5;entryY=0;entryDx=0;entryDy=0;exitX=-0.002;exitY=0.337;exitDx=0;exitDy=0;exitPerimeter=0;endArrow=open;endFill=0;" parent="WIyWlLk6GJQsqaUBKTNV-1" source="34jW8y6ZJVeA6K0mkwZz-22" target="34jW8y6ZJVeA6K0mkwZz-33" edge="1">
          <mxGeometry relative="1" as="geometry">
            <mxPoint x="-180" y="-440" as="sourcePoint" />
          </mxGeometry>
        </mxCell>
        <mxCell id="34jW8y6ZJVeA6K0mkwZz-32" style="edgeStyle=orthogonalEdgeStyle;rounded=0;orthogonalLoop=1;jettySize=auto;html=1;exitX=0.175;exitY=0.011;exitDx=0;exitDy=0;exitPerimeter=0;endArrow=open;endFill=0;" parent="WIyWlLk6GJQsqaUBKTNV-1" source="34jW8y6ZJVeA6K0mkwZz-26" target="kdAsW70PlrFogEJaz6tP-46" edge="1">
          <mxGeometry relative="1" as="geometry" />
        </mxCell>
        <mxCell id="ZCnHrs2GG1sbxFjUJOWf-72" style="edgeStyle=orthogonalEdgeStyle;rounded=0;orthogonalLoop=1;jettySize=auto;html=1;startArrow=open;startFill=0;endArrow=open;endFill=0;" parent="WIyWlLk6GJQsqaUBKTNV-1" source="34jW8y6ZJVeA6K0mkwZz-26" edge="1">
          <mxGeometry relative="1" as="geometry">
            <mxPoint x="-1900" y="-150" as="targetPoint" />
          </mxGeometry>
        </mxCell>
        <mxCell id="34jW8y6ZJVeA6K0mkwZz-26" value="Controlador_Estoque" style="swimlane;fontStyle=0;align=center;verticalAlign=top;childLayout=stackLayout;horizontal=1;startSize=26;horizontalStack=0;resizeParent=1;resizeLast=0;collapsible=1;marginBottom=0;rounded=0;shadow=0;strokeWidth=1;fillColor=#d5e8d4;strokeColor=#82b366;" parent="WIyWlLk6GJQsqaUBKTNV-1" vertex="1">
          <mxGeometry x="-2000" y="16" width="280" height="254" as="geometry">
            <mxRectangle x="550" y="140" width="160" height="26" as="alternateBounds" />
          </mxGeometry>
        </mxCell>
        <mxCell id="34jW8y6ZJVeA6K0mkwZz-43" value="- estoque:Estoque" style="text;align=left;verticalAlign=top;spacingLeft=4;spacingRight=4;overflow=hidden;rotatable=0;points=[[0,0.5],[1,0.5]];portConstraint=eastwest;rounded=0;" parent="34jW8y6ZJVeA6K0mkwZz-26" vertex="1">
          <mxGeometry y="26" width="280" height="26" as="geometry" />
        </mxCell>
        <mxCell id="34jW8y6ZJVeA6K0mkwZz-31" value="" style="line;html=1;strokeWidth=1;align=left;verticalAlign=middle;spacingTop=-1;spacingLeft=3;spacingRight=3;rotatable=0;labelPosition=right;points=[];portConstraint=eastwest;rounded=0;" parent="34jW8y6ZJVeA6K0mkwZz-26" vertex="1">
          <mxGeometry y="52" width="280" height="20" as="geometry" />
        </mxCell>
        <mxCell id="hOtxBI7cqi8a_a_TEYvA-30" value="+ &lt;&lt;create&gt;&gt; __init__()" style="text;align=left;verticalAlign=top;spacingLeft=4;spacingRight=4;overflow=hidden;rotatable=0;points=[[0,0.5],[1,0.5]];portConstraint=eastwest;rounded=0;" parent="34jW8y6ZJVeA6K0mkwZz-26" vertex="1">
          <mxGeometry y="72" width="280" height="26" as="geometry" />
        </mxCell>
        <mxCell id="34jW8y6ZJVeA6K0mkwZz-41" value="+ adicionar_ingredientes(ingrediente, quantidade)" style="text;align=left;verticalAlign=top;spacingLeft=4;spacingRight=4;overflow=hidden;rotatable=0;points=[[0,0.5],[1,0.5]];portConstraint=eastwest;rounded=0;" parent="34jW8y6ZJVeA6K0mkwZz-26" vertex="1">
          <mxGeometry y="98" width="280" height="26" as="geometry" />
        </mxCell>
        <mxCell id="34jW8y6ZJVeA6K0mkwZz-42" value="+ remover_ingredientes(ingrediente, quantidade)" style="text;align=left;verticalAlign=top;spacingLeft=4;spacingRight=4;overflow=hidden;rotatable=0;points=[[0,0.5],[1,0.5]];portConstraint=eastwest;rounded=0;" parent="34jW8y6ZJVeA6K0mkwZz-26" vertex="1">
          <mxGeometry y="124" width="280" height="26" as="geometry" />
        </mxCell>
        <mxCell id="ZCnHrs2GG1sbxFjUJOWf-77" value="+ ver_ingredientes()" style="text;align=left;verticalAlign=top;spacingLeft=4;spacingRight=4;overflow=hidden;rotatable=0;points=[[0,0.5],[1,0.5]];portConstraint=eastwest;rounded=0;" parent="34jW8y6ZJVeA6K0mkwZz-26" vertex="1">
          <mxGeometry y="150" width="280" height="26" as="geometry" />
        </mxCell>
        <mxCell id="ZCnHrs2GG1sbxFjUJOWf-78" value="+ cadastrar_ingrediente()" style="text;align=left;verticalAlign=top;spacingLeft=4;spacingRight=4;overflow=hidden;rotatable=0;points=[[0,0.5],[1,0.5]];portConstraint=eastwest;rounded=0;" parent="34jW8y6ZJVeA6K0mkwZz-26" vertex="1">
          <mxGeometry y="176" width="280" height="26" as="geometry" />
        </mxCell>
        <mxCell id="ZCnHrs2GG1sbxFjUJOWf-79" value="+ modificar_ingrediente()" style="text;align=left;verticalAlign=top;spacingLeft=4;spacingRight=4;overflow=hidden;rotatable=0;points=[[0,0.5],[1,0.5]];portConstraint=eastwest;rounded=0;" parent="34jW8y6ZJVeA6K0mkwZz-26" vertex="1">
          <mxGeometry y="202" width="280" height="26" as="geometry" />
        </mxCell>
        <mxCell id="ZCnHrs2GG1sbxFjUJOWf-80" value="+ deletar_ingrediente()" style="text;align=left;verticalAlign=top;spacingLeft=4;spacingRight=4;overflow=hidden;rotatable=0;points=[[0,0.5],[1,0.5]];portConstraint=eastwest;rounded=0;" parent="34jW8y6ZJVeA6K0mkwZz-26" vertex="1">
          <mxGeometry y="228" width="280" height="26" as="geometry" />
        </mxCell>
        <mxCell id="34jW8y6ZJVeA6K0mkwZz-36" style="edgeStyle=orthogonalEdgeStyle;rounded=0;orthogonalLoop=1;jettySize=auto;html=1;entryX=0.5;entryY=0;entryDx=0;entryDy=0;endArrow=open;endFill=0;" parent="WIyWlLk6GJQsqaUBKTNV-1" source="34jW8y6ZJVeA6K0mkwZz-33" target="QIKu43iznkj8tfLvrIEL-60" edge="1">
          <mxGeometry relative="1" as="geometry" />
        </mxCell>
        <mxCell id="34jW8y6ZJVeA6K0mkwZz-33" value="Controlador_Pedido" style="swimlane;fontStyle=0;align=center;verticalAlign=top;childLayout=stackLayout;horizontal=1;startSize=26;horizontalStack=0;resizeParent=1;resizeLast=0;collapsible=1;marginBottom=0;rounded=0;shadow=0;strokeWidth=1;fillColor=#d5e8d4;strokeColor=#82b366;" parent="WIyWlLk6GJQsqaUBKTNV-1" vertex="1">
          <mxGeometry x="-570" y="-50" width="225" height="230" as="geometry">
            <mxRectangle x="550" y="140" width="160" height="26" as="alternateBounds" />
          </mxGeometry>
        </mxCell>
        <mxCell id="34jW8y6ZJVeA6K0mkwZz-35" value="" style="line;html=1;strokeWidth=1;align=left;verticalAlign=middle;spacingTop=-1;spacingLeft=3;spacingRight=3;rotatable=0;labelPosition=right;points=[];portConstraint=eastwest;rounded=0;" parent="34jW8y6ZJVeA6K0mkwZz-33" vertex="1">
          <mxGeometry y="26" width="225" height="8" as="geometry" />
        </mxCell>
        <mxCell id="hOtxBI7cqi8a_a_TEYvA-25" value="+ &lt;&lt;create&gt;&gt; __init__()" style="text;align=left;verticalAlign=top;spacingLeft=4;spacingRight=4;overflow=hidden;rotatable=0;points=[[0,0.5],[1,0.5]];portConstraint=eastwest;rounded=0;" parent="34jW8y6ZJVeA6K0mkwZz-33" vertex="1">
          <mxGeometry y="34" width="225" height="26" as="geometry" />
        </mxCell>
        <mxCell id="34jW8y6ZJVeA6K0mkwZz-37" value="+ fazer_pedido()" style="text;align=left;verticalAlign=top;spacingLeft=4;spacingRight=4;overflow=hidden;rotatable=0;points=[[0,0.5],[1,0.5]];portConstraint=eastwest;rounded=0;" parent="34jW8y6ZJVeA6K0mkwZz-33" vertex="1">
          <mxGeometry y="60" width="225" height="26" as="geometry" />
        </mxCell>
        <mxCell id="34jW8y6ZJVeA6K0mkwZz-38" value="+ deletar_pedido()" style="text;align=left;verticalAlign=top;spacingLeft=4;spacingRight=4;overflow=hidden;rotatable=0;points=[[0,0.5],[1,0.5]];portConstraint=eastwest;rounded=0;" parent="34jW8y6ZJVeA6K0mkwZz-33" vertex="1">
          <mxGeometry y="86" width="225" height="26" as="geometry" />
        </mxCell>
        <mxCell id="34jW8y6ZJVeA6K0mkwZz-39" value="+ modificar_pedido()" style="text;align=left;verticalAlign=top;spacingLeft=4;spacingRight=4;overflow=hidden;rotatable=0;points=[[0,0.5],[1,0.5]];portConstraint=eastwest;rounded=0;" parent="34jW8y6ZJVeA6K0mkwZz-33" vertex="1">
          <mxGeometry y="112" width="225" height="26" as="geometry" />
        </mxCell>
        <mxCell id="34jW8y6ZJVeA6K0mkwZz-40" value="+ ver_pedidos() " style="text;align=left;verticalAlign=top;spacingLeft=4;spacingRight=4;overflow=hidden;rotatable=0;points=[[0,0.5],[1,0.5]];portConstraint=eastwest;rounded=0;" parent="34jW8y6ZJVeA6K0mkwZz-33" vertex="1">
          <mxGeometry y="138" width="225" height="26" as="geometry" />
        </mxCell>
        <mxCell id="ZCnHrs2GG1sbxFjUJOWf-2" style="edgeStyle=orthogonalEdgeStyle;rounded=0;orthogonalLoop=1;jettySize=auto;html=1;entryX=1;entryY=0.75;entryDx=0;entryDy=0;endArrow=open;endFill=0;" parent="WIyWlLk6GJQsqaUBKTNV-1" source="34jW8y6ZJVeA6K0mkwZz-55" target="QIKu43iznkj8tfLvrIEL-0" edge="1">
          <mxGeometry relative="1" as="geometry" />
        </mxCell>
        <mxCell id="34jW8y6ZJVeA6K0mkwZz-55" value="Controlador_Produto" style="swimlane;fontStyle=0;align=center;verticalAlign=top;childLayout=stackLayout;horizontal=1;startSize=26;horizontalStack=0;resizeParent=1;resizeLast=0;collapsible=1;marginBottom=0;rounded=0;shadow=0;strokeWidth=1;fillColor=#d5e8d4;strokeColor=#82b366;" parent="WIyWlLk6GJQsqaUBKTNV-1" vertex="1">
          <mxGeometry x="-970" y="-76" width="250" height="212" as="geometry">
            <mxRectangle x="550" y="140" width="160" height="26" as="alternateBounds" />
          </mxGeometry>
        </mxCell>
        <mxCell id="34jW8y6ZJVeA6K0mkwZz-56" value="- Pizzas:Pizza[]" style="text;align=left;verticalAlign=top;spacingLeft=4;spacingRight=4;overflow=hidden;rotatable=0;points=[[0,0.5],[1,0.5]];portConstraint=eastwest;rounded=0;" parent="34jW8y6ZJVeA6K0mkwZz-55" vertex="1">
          <mxGeometry y="26" width="250" height="22" as="geometry" />
        </mxCell>
        <mxCell id="34jW8y6ZJVeA6K0mkwZz-58" value="- Bebidas:Bebida[]" style="text;align=left;verticalAlign=top;spacingLeft=4;spacingRight=4;overflow=hidden;rotatable=0;points=[[0,0.5],[1,0.5]];portConstraint=eastwest;rounded=0;" parent="34jW8y6ZJVeA6K0mkwZz-55" vertex="1">
          <mxGeometry y="48" width="250" height="26" as="geometry" />
        </mxCell>
        <mxCell id="34jW8y6ZJVeA6K0mkwZz-57" value="" style="line;html=1;strokeWidth=1;align=left;verticalAlign=middle;spacingTop=-1;spacingLeft=3;spacingRight=3;rotatable=0;labelPosition=right;points=[];portConstraint=eastwest;rounded=0;" parent="34jW8y6ZJVeA6K0mkwZz-55" vertex="1">
          <mxGeometry y="74" width="250" height="8" as="geometry" />
        </mxCell>
        <mxCell id="hOtxBI7cqi8a_a_TEYvA-24" value="+ &lt;&lt;create&gt;&gt; __init__()" style="text;align=left;verticalAlign=top;spacingLeft=4;spacingRight=4;overflow=hidden;rotatable=0;points=[[0,0.5],[1,0.5]];portConstraint=eastwest;rounded=0;" parent="34jW8y6ZJVeA6K0mkwZz-55" vertex="1">
          <mxGeometry y="82" width="250" height="26" as="geometry" />
        </mxCell>
        <mxCell id="ZCnHrs2GG1sbxFjUJOWf-73" value="+ cadastrar_produto()" style="text;align=left;verticalAlign=top;spacingLeft=4;spacingRight=4;overflow=hidden;rotatable=0;points=[[0,0.5],[1,0.5]];portConstraint=eastwest;rounded=0;" parent="34jW8y6ZJVeA6K0mkwZz-55" vertex="1">
          <mxGeometry y="108" width="250" height="26" as="geometry" />
        </mxCell>
        <mxCell id="ZCnHrs2GG1sbxFjUJOWf-75" value="+ modificar_produto()" style="text;align=left;verticalAlign=top;spacingLeft=4;spacingRight=4;overflow=hidden;rotatable=0;points=[[0,0.5],[1,0.5]];portConstraint=eastwest;rounded=0;" parent="34jW8y6ZJVeA6K0mkwZz-55" vertex="1">
          <mxGeometry y="134" width="250" height="26" as="geometry" />
        </mxCell>
        <mxCell id="ZCnHrs2GG1sbxFjUJOWf-74" value="+ deletar_produto()" style="text;align=left;verticalAlign=top;spacingLeft=4;spacingRight=4;overflow=hidden;rotatable=0;points=[[0,0.5],[1,0.5]];portConstraint=eastwest;rounded=0;" parent="34jW8y6ZJVeA6K0mkwZz-55" vertex="1">
          <mxGeometry y="160" width="250" height="26" as="geometry" />
        </mxCell>
        <mxCell id="ZCnHrs2GG1sbxFjUJOWf-76" value="+ ver_produtos()" style="text;align=left;verticalAlign=top;spacingLeft=4;spacingRight=4;overflow=hidden;rotatable=0;points=[[0,0.5],[1,0.5]];portConstraint=eastwest;rounded=0;" parent="34jW8y6ZJVeA6K0mkwZz-55" vertex="1">
          <mxGeometry y="186" width="250" height="26" as="geometry" />
        </mxCell>
        <mxCell id="ZCnHrs2GG1sbxFjUJOWf-0" value="&amp;nbsp;" style="text;whiteSpace=wrap;html=1;rounded=0;" parent="WIyWlLk6GJQsqaUBKTNV-1" vertex="1">
          <mxGeometry x="-20" y="-480" width="40" height="40" as="geometry" />
        </mxCell>
        <mxCell id="ZCnHrs2GG1sbxFjUJOWf-3" style="edgeStyle=orthogonalEdgeStyle;rounded=0;orthogonalLoop=1;jettySize=auto;html=1;exitX=0.003;exitY=1.124;exitDx=0;exitDy=0;exitPerimeter=0;endArrow=open;endFill=0;" parent="WIyWlLk6GJQsqaUBKTNV-1" source="34jW8y6ZJVeA6K0mkwZz-22" target="34jW8y6ZJVeA6K0mkwZz-55" edge="1">
          <mxGeometry relative="1" as="geometry" />
        </mxCell>
        <mxCell id="ZCnHrs2GG1sbxFjUJOWf-4" value="Tela_Pedido" style="swimlane;fontStyle=0;align=center;verticalAlign=top;childLayout=stackLayout;horizontal=1;startSize=26;horizontalStack=0;resizeParent=1;resizeLast=0;collapsible=1;marginBottom=0;rounded=0;shadow=0;strokeWidth=1;fillColor=#f8cecc;strokeColor=#b85450;" parent="WIyWlLk6GJQsqaUBKTNV-1" vertex="1">
          <mxGeometry x="-640" y="230" width="225" height="268" as="geometry">
            <mxRectangle x="550" y="140" width="160" height="26" as="alternateBounds" />
          </mxGeometry>
        </mxCell>
        <mxCell id="ZCnHrs2GG1sbxFjUJOWf-6" value="" style="line;html=1;strokeWidth=1;align=left;verticalAlign=middle;spacingTop=-1;spacingLeft=3;spacingRight=3;rotatable=0;labelPosition=right;points=[];portConstraint=eastwest;rounded=0;" parent="ZCnHrs2GG1sbxFjUJOWf-4" vertex="1">
          <mxGeometry y="26" width="225" height="8" as="geometry" />
        </mxCell>
        <mxCell id="hOtxBI7cqi8a_a_TEYvA-22" value="+ &lt;&lt;create&gt;&gt; __init__(controlador)" style="text;align=left;verticalAlign=top;spacingLeft=4;spacingRight=4;overflow=hidden;rotatable=0;points=[[0,0.5],[1,0.5]];portConstraint=eastwest;rounded=0;" parent="ZCnHrs2GG1sbxFjUJOWf-4" vertex="1">
          <mxGeometry y="34" width="225" height="26" as="geometry" />
        </mxCell>
        <mxCell id="ZCnHrs2GG1sbxFjUJOWf-94" value="+ retornar()" style="text;align=left;verticalAlign=top;spacingLeft=4;spacingRight=4;overflow=hidden;rotatable=0;points=[[0,0.5],[1,0.5]];portConstraint=eastwest;rounded=0;" parent="ZCnHrs2GG1sbxFjUJOWf-4" vertex="1">
          <mxGeometry y="60" width="225" height="26" as="geometry" />
        </mxCell>
        <mxCell id="ZCnHrs2GG1sbxFjUJOWf-93" value="+ abre_tela()" style="text;align=left;verticalAlign=top;spacingLeft=4;spacingRight=4;overflow=hidden;rotatable=0;points=[[0,0.5],[1,0.5]];portConstraint=eastwest;rounded=0;" parent="ZCnHrs2GG1sbxFjUJOWf-4" vertex="1">
          <mxGeometry y="86" width="225" height="26" as="geometry" />
        </mxCell>
        <mxCell id="ZCnHrs2GG1sbxFjUJOWf-7" value="+ fazer_pedido()" style="text;align=left;verticalAlign=top;spacingLeft=4;spacingRight=4;overflow=hidden;rotatable=0;points=[[0,0.5],[1,0.5]];portConstraint=eastwest;rounded=0;" parent="ZCnHrs2GG1sbxFjUJOWf-4" vertex="1">
          <mxGeometry y="112" width="225" height="26" as="geometry" />
        </mxCell>
        <mxCell id="ZCnHrs2GG1sbxFjUJOWf-8" value="+ deletar_pedido()" style="text;align=left;verticalAlign=top;spacingLeft=4;spacingRight=4;overflow=hidden;rotatable=0;points=[[0,0.5],[1,0.5]];portConstraint=eastwest;rounded=0;" parent="ZCnHrs2GG1sbxFjUJOWf-4" vertex="1">
          <mxGeometry y="138" width="225" height="26" as="geometry" />
        </mxCell>
        <mxCell id="ZCnHrs2GG1sbxFjUJOWf-11" style="edgeStyle=orthogonalEdgeStyle;rounded=0;orthogonalLoop=1;jettySize=auto;html=1;startArrow=open;startFill=0;endArrow=open;endFill=0;" parent="ZCnHrs2GG1sbxFjUJOWf-4" source="ZCnHrs2GG1sbxFjUJOWf-9" edge="1">
          <mxGeometry relative="1" as="geometry">
            <mxPoint x="260" y="-50" as="targetPoint" />
          </mxGeometry>
        </mxCell>
        <mxCell id="ZCnHrs2GG1sbxFjUJOWf-9" value="+ modificar_pedido()" style="text;align=left;verticalAlign=top;spacingLeft=4;spacingRight=4;overflow=hidden;rotatable=0;points=[[0,0.5],[1,0.5]];portConstraint=eastwest;rounded=0;" parent="ZCnHrs2GG1sbxFjUJOWf-4" vertex="1">
          <mxGeometry y="164" width="225" height="26" as="geometry" />
        </mxCell>
        <mxCell id="ZCnHrs2GG1sbxFjUJOWf-10" value="+ ver_pedidos()" style="text;align=left;verticalAlign=top;spacingLeft=4;spacingRight=4;overflow=hidden;rotatable=0;points=[[0,0.5],[1,0.5]];portConstraint=eastwest;rounded=0;" parent="ZCnHrs2GG1sbxFjUJOWf-4" vertex="1">
          <mxGeometry y="190" width="225" height="26" as="geometry" />
        </mxCell>
        <mxCell id="ZCnHrs2GG1sbxFjUJOWf-45" value="+ mostra_mensagem(mensagem:str)&#xa;" style="text;align=left;verticalAlign=top;spacingLeft=4;spacingRight=4;overflow=hidden;rotatable=0;points=[[0,0.5],[1,0.5]];portConstraint=eastwest;rounded=0;" parent="ZCnHrs2GG1sbxFjUJOWf-4" vertex="1">
          <mxGeometry y="216" width="225" height="26" as="geometry" />
        </mxCell>
        <mxCell id="ZCnHrs2GG1sbxFjUJOWf-101" value="+ busca_pedido(codigo:int)" style="text;align=left;verticalAlign=top;spacingLeft=4;spacingRight=4;overflow=hidden;rotatable=0;points=[[0,0.5],[1,0.5]];portConstraint=eastwest;rounded=0;" parent="ZCnHrs2GG1sbxFjUJOWf-4" vertex="1">
          <mxGeometry y="242" width="225" height="26" as="geometry" />
        </mxCell>
        <mxCell id="ZCnHrs2GG1sbxFjUJOWf-13" value="Tela_Pizzaria" style="swimlane;fontStyle=0;align=center;verticalAlign=top;childLayout=stackLayout;horizontal=1;startSize=26;horizontalStack=0;resizeParent=1;resizeLast=0;collapsible=1;marginBottom=0;rounded=0;shadow=0;strokeWidth=1;fillColor=#f8cecc;strokeColor=#b85450;" parent="WIyWlLk6GJQsqaUBKTNV-1" vertex="1">
          <mxGeometry x="-420" y="-780" width="220" height="242" as="geometry">
            <mxRectangle x="550" y="140" width="160" height="26" as="alternateBounds" />
          </mxGeometry>
        </mxCell>
        <mxCell id="ZCnHrs2GG1sbxFjUJOWf-15" value="" style="line;html=1;strokeWidth=1;align=left;verticalAlign=middle;spacingTop=-1;spacingLeft=3;spacingRight=3;rotatable=0;labelPosition=right;points=[];portConstraint=eastwest;rounded=0;" parent="ZCnHrs2GG1sbxFjUJOWf-13" vertex="1">
          <mxGeometry y="26" width="220" height="8" as="geometry" />
        </mxCell>
        <mxCell id="hOtxBI7cqi8a_a_TEYvA-39" value="+ &lt;&lt;create&gt;&gt; __init__(controlador)" style="text;align=left;verticalAlign=top;spacingLeft=4;spacingRight=4;overflow=hidden;rotatable=0;points=[[0,0.5],[1,0.5]];portConstraint=eastwest;rounded=0;" parent="ZCnHrs2GG1sbxFjUJOWf-13" vertex="1">
          <mxGeometry y="34" width="220" height="26" as="geometry" />
        </mxCell>
        <mxCell id="ZCnHrs2GG1sbxFjUJOWf-22" value="+ tela_geral()&#xa;" style="text;align=left;verticalAlign=top;spacingLeft=4;spacingRight=4;overflow=hidden;rotatable=0;points=[[0,0.5],[1,0.5]];portConstraint=eastwest;rounded=0;" parent="ZCnHrs2GG1sbxFjUJOWf-13" vertex="1">
          <mxGeometry y="60" width="220" height="26" as="geometry" />
        </mxCell>
        <mxCell id="ZCnHrs2GG1sbxFjUJOWf-16" value="+ pegar_lucro()&#xa;" style="text;align=left;verticalAlign=top;spacingLeft=4;spacingRight=4;overflow=hidden;rotatable=0;points=[[0,0.5],[1,0.5]];portConstraint=eastwest;rounded=0;" parent="ZCnHrs2GG1sbxFjUJOWf-13" vertex="1">
          <mxGeometry y="86" width="220" height="26" as="geometry" />
        </mxCell>
        <mxCell id="ZCnHrs2GG1sbxFjUJOWf-17" value="+ ver_receitas()&#xa;" style="text;align=left;verticalAlign=top;spacingLeft=4;spacingRight=4;overflow=hidden;rotatable=0;points=[[0,0.5],[1,0.5]];portConstraint=eastwest;rounded=0;" parent="ZCnHrs2GG1sbxFjUJOWf-13" vertex="1">
          <mxGeometry y="112" width="220" height="26" as="geometry" />
        </mxCell>
        <mxCell id="ZCnHrs2GG1sbxFjUJOWf-18" value="+ ver_despesas()&#xa;" style="text;align=left;verticalAlign=top;spacingLeft=4;spacingRight=4;overflow=hidden;rotatable=0;points=[[0,0.5],[1,0.5]];portConstraint=eastwest;rounded=0;" parent="ZCnHrs2GG1sbxFjUJOWf-13" vertex="1">
          <mxGeometry y="138" width="220" height="26" as="geometry" />
        </mxCell>
        <mxCell id="ZCnHrs2GG1sbxFjUJOWf-19" value="+ ver_total_salarios()&#xa;" style="text;align=left;verticalAlign=top;spacingLeft=4;spacingRight=4;overflow=hidden;rotatable=0;points=[[0,0.5],[1,0.5]];portConstraint=eastwest;rounded=0;" parent="ZCnHrs2GG1sbxFjUJOWf-13" vertex="1">
          <mxGeometry y="164" width="220" height="26" as="geometry" />
        </mxCell>
        <mxCell id="ZCnHrs2GG1sbxFjUJOWf-43" value="+ mostra_mensagem(mensagem:str)&#xa;" style="text;align=left;verticalAlign=top;spacingLeft=4;spacingRight=4;overflow=hidden;rotatable=0;points=[[0,0.5],[1,0.5]];portConstraint=eastwest;rounded=0;" parent="ZCnHrs2GG1sbxFjUJOWf-13" vertex="1">
          <mxGeometry y="190" width="220" height="26" as="geometry" />
        </mxCell>
        <mxCell id="ZCnHrs2GG1sbxFjUJOWf-85" value="+ finalizar_programa()" style="text;align=left;verticalAlign=top;spacingLeft=4;spacingRight=4;overflow=hidden;rotatable=0;points=[[0,0.5],[1,0.5]];portConstraint=eastwest;rounded=0;" parent="ZCnHrs2GG1sbxFjUJOWf-13" vertex="1">
          <mxGeometry y="216" width="220" height="26" as="geometry" />
        </mxCell>
        <mxCell id="ZCnHrs2GG1sbxFjUJOWf-21" style="edgeStyle=orthogonalEdgeStyle;rounded=0;orthogonalLoop=1;jettySize=auto;html=1;startArrow=open;startFill=0;entryX=1.003;entryY=-0.064;entryDx=0;entryDy=0;entryPerimeter=0;endArrow=open;endFill=0;" parent="WIyWlLk6GJQsqaUBKTNV-1" source="34jW8y6ZJVeA6K0mkwZz-0" target="ZCnHrs2GG1sbxFjUJOWf-17" edge="1">
          <mxGeometry relative="1" as="geometry">
            <mxPoint x="-210" y="-634" as="targetPoint" />
          </mxGeometry>
        </mxCell>
        <mxCell id="ZCnHrs2GG1sbxFjUJOWf-34" style="edgeStyle=orthogonalEdgeStyle;rounded=0;orthogonalLoop=1;jettySize=auto;html=1;entryX=0.476;entryY=0;entryDx=0;entryDy=0;entryPerimeter=0;startArrow=open;startFill=0;endArrow=open;endFill=0;" parent="WIyWlLk6GJQsqaUBKTNV-1" source="ZCnHrs2GG1sbxFjUJOWf-30" target="34jW8y6ZJVeA6K0mkwZz-9" edge="1">
          <mxGeometry relative="1" as="geometry" />
        </mxCell>
        <mxCell id="ZCnHrs2GG1sbxFjUJOWf-30" value="Tela_Funcionario" style="swimlane;fontStyle=0;align=center;verticalAlign=top;childLayout=stackLayout;horizontal=1;startSize=26;horizontalStack=0;resizeParent=1;resizeLast=0;collapsible=1;marginBottom=0;rounded=0;shadow=0;strokeWidth=1;fillColor=#f8cecc;strokeColor=#b85450;" parent="WIyWlLk6GJQsqaUBKTNV-1" vertex="1">
          <mxGeometry x="1015" y="-130" width="225" height="216" as="geometry">
            <mxRectangle x="550" y="140" width="160" height="26" as="alternateBounds" />
          </mxGeometry>
        </mxCell>
        <mxCell id="ZCnHrs2GG1sbxFjUJOWf-33" value="" style="line;html=1;strokeWidth=1;align=left;verticalAlign=middle;spacingTop=-1;spacingLeft=3;spacingRight=3;rotatable=0;labelPosition=right;points=[];portConstraint=eastwest;rounded=0;" parent="ZCnHrs2GG1sbxFjUJOWf-30" vertex="1">
          <mxGeometry y="26" width="225" height="8" as="geometry" />
        </mxCell>
        <mxCell id="hOtxBI7cqi8a_a_TEYvA-9" value="+ &lt;&lt;create&gt;&gt; __init__(controlador)" style="text;align=left;verticalAlign=top;spacingLeft=4;spacingRight=4;overflow=hidden;rotatable=0;points=[[0,0.5],[1,0.5]];portConstraint=eastwest;rounded=0;" parent="ZCnHrs2GG1sbxFjUJOWf-30" vertex="1">
          <mxGeometry y="34" width="225" height="26" as="geometry" />
        </mxCell>
        <mxCell id="ZCnHrs2GG1sbxFjUJOWf-95" value="+ abre_tela()" style="text;align=left;verticalAlign=top;spacingLeft=4;spacingRight=4;overflow=hidden;rotatable=0;points=[[0,0.5],[1,0.5]];portConstraint=eastwest;rounded=0;" parent="ZCnHrs2GG1sbxFjUJOWf-30" vertex="1">
          <mxGeometry y="60" width="225" height="26" as="geometry" />
        </mxCell>
        <mxCell id="ZCnHrs2GG1sbxFjUJOWf-96" value="+ retornar()" style="text;align=left;verticalAlign=top;spacingLeft=4;spacingRight=4;overflow=hidden;rotatable=0;points=[[0,0.5],[1,0.5]];portConstraint=eastwest;rounded=0;" parent="ZCnHrs2GG1sbxFjUJOWf-30" vertex="1">
          <mxGeometry y="86" width="225" height="26" as="geometry" />
        </mxCell>
        <mxCell id="ZCnHrs2GG1sbxFjUJOWf-36" value="+ pega_dados_funionario()&#xa;" style="text;align=left;verticalAlign=top;spacingLeft=4;spacingRight=4;overflow=hidden;rotatable=0;points=[[0,0.5],[1,0.5]];portConstraint=eastwest;rounded=0;" parent="ZCnHrs2GG1sbxFjUJOWf-30" vertex="1">
          <mxGeometry y="112" width="225" height="26" as="geometry" />
        </mxCell>
        <mxCell id="ZCnHrs2GG1sbxFjUJOWf-42" value="+ mostra_funcionarios()&#xa;" style="text;align=left;verticalAlign=top;spacingLeft=4;spacingRight=4;overflow=hidden;rotatable=0;points=[[0,0.5],[1,0.5]];portConstraint=eastwest;rounded=0;" parent="ZCnHrs2GG1sbxFjUJOWf-30" vertex="1">
          <mxGeometry y="138" width="225" height="26" as="geometry" />
        </mxCell>
        <mxCell id="ZCnHrs2GG1sbxFjUJOWf-44" value="+ mostra_mensagem(mensagem:str)&#xa;" style="text;align=left;verticalAlign=top;spacingLeft=4;spacingRight=4;overflow=hidden;rotatable=0;points=[[0,0.5],[1,0.5]];portConstraint=eastwest;rounded=0;" parent="ZCnHrs2GG1sbxFjUJOWf-30" vertex="1">
          <mxGeometry y="164" width="225" height="26" as="geometry" />
        </mxCell>
        <mxCell id="ZCnHrs2GG1sbxFjUJOWf-100" value="+ busca_funcionario(cpf:str)&#xa;" style="text;align=left;verticalAlign=top;spacingLeft=4;spacingRight=4;overflow=hidden;rotatable=0;points=[[0,0.5],[1,0.5]];portConstraint=eastwest;rounded=0;" parent="ZCnHrs2GG1sbxFjUJOWf-30" vertex="1">
          <mxGeometry y="190" width="225" height="26" as="geometry" />
        </mxCell>
        <mxCell id="ZCnHrs2GG1sbxFjUJOWf-46" value="Tela_Produto" style="swimlane;fontStyle=0;align=center;verticalAlign=top;childLayout=stackLayout;horizontal=1;startSize=26;horizontalStack=0;resizeParent=1;resizeLast=0;collapsible=1;marginBottom=0;rounded=0;shadow=0;strokeWidth=1;fillColor=#f8cecc;strokeColor=#b85450;" parent="WIyWlLk6GJQsqaUBKTNV-1" vertex="1">
          <mxGeometry x="-1470" y="-180" width="220" height="242" as="geometry">
            <mxRectangle x="550" y="140" width="160" height="26" as="alternateBounds" />
          </mxGeometry>
        </mxCell>
        <mxCell id="ZCnHrs2GG1sbxFjUJOWf-49" value="" style="line;html=1;strokeWidth=1;align=left;verticalAlign=middle;spacingTop=-1;spacingLeft=3;spacingRight=3;rotatable=0;labelPosition=right;points=[];portConstraint=eastwest;rounded=0;" parent="ZCnHrs2GG1sbxFjUJOWf-46" vertex="1">
          <mxGeometry y="26" width="220" height="8" as="geometry" />
        </mxCell>
        <mxCell id="hOtxBI7cqi8a_a_TEYvA-23" value="+ &lt;&lt;create&gt;&gt; __init__(controlador)" style="text;align=left;verticalAlign=top;spacingLeft=4;spacingRight=4;overflow=hidden;rotatable=0;points=[[0,0.5],[1,0.5]];portConstraint=eastwest;rounded=0;" parent="ZCnHrs2GG1sbxFjUJOWf-46" vertex="1">
          <mxGeometry y="34" width="220" height="26" as="geometry" />
        </mxCell>
        <mxCell id="ZCnHrs2GG1sbxFjUJOWf-88" value="+ abre_tela()" style="text;align=left;verticalAlign=top;spacingLeft=4;spacingRight=4;overflow=hidden;rotatable=0;points=[[0,0.5],[1,0.5]];portConstraint=eastwest;rounded=0;" parent="ZCnHrs2GG1sbxFjUJOWf-46" vertex="1">
          <mxGeometry y="60" width="220" height="26" as="geometry" />
        </mxCell>
        <mxCell id="ZCnHrs2GG1sbxFjUJOWf-89" value="+ retornar()" style="text;align=left;verticalAlign=top;spacingLeft=4;spacingRight=4;overflow=hidden;rotatable=0;points=[[0,0.5],[1,0.5]];portConstraint=eastwest;rounded=0;" parent="ZCnHrs2GG1sbxFjUJOWf-46" vertex="1">
          <mxGeometry y="86" width="220" height="26" as="geometry" />
        </mxCell>
        <mxCell id="ZCnHrs2GG1sbxFjUJOWf-51" value="+ cadastrar_produto()" style="text;align=left;verticalAlign=top;spacingLeft=4;spacingRight=4;overflow=hidden;rotatable=0;points=[[0,0.5],[1,0.5]];portConstraint=eastwest;rounded=0;" parent="ZCnHrs2GG1sbxFjUJOWf-46" vertex="1">
          <mxGeometry y="112" width="220" height="26" as="geometry" />
        </mxCell>
        <mxCell id="ZCnHrs2GG1sbxFjUJOWf-53" value="+ modificar_produto()" style="text;align=left;verticalAlign=top;spacingLeft=4;spacingRight=4;overflow=hidden;rotatable=0;points=[[0,0.5],[1,0.5]];portConstraint=eastwest;rounded=0;" parent="ZCnHrs2GG1sbxFjUJOWf-46" vertex="1">
          <mxGeometry y="138" width="220" height="26" as="geometry" />
        </mxCell>
        <mxCell id="ZCnHrs2GG1sbxFjUJOWf-52" value="+ deletar_produto()" style="text;align=left;verticalAlign=top;spacingLeft=4;spacingRight=4;overflow=hidden;rotatable=0;points=[[0,0.5],[1,0.5]];portConstraint=eastwest;rounded=0;" parent="ZCnHrs2GG1sbxFjUJOWf-46" vertex="1">
          <mxGeometry y="164" width="220" height="26" as="geometry" />
        </mxCell>
        <mxCell id="ZCnHrs2GG1sbxFjUJOWf-54" value="+ ver_produtos()" style="text;align=left;verticalAlign=top;spacingLeft=4;spacingRight=4;overflow=hidden;rotatable=0;points=[[0,0.5],[1,0.5]];portConstraint=eastwest;rounded=0;" parent="ZCnHrs2GG1sbxFjUJOWf-46" vertex="1">
          <mxGeometry y="190" width="220" height="26" as="geometry" />
        </mxCell>
        <mxCell id="ZCnHrs2GG1sbxFjUJOWf-55" value="+ mostra_mensagem(mensagem:str)&#xa;" style="text;align=left;verticalAlign=top;spacingLeft=4;spacingRight=4;overflow=hidden;rotatable=0;points=[[0,0.5],[1,0.5]];portConstraint=eastwest;rounded=0;" parent="ZCnHrs2GG1sbxFjUJOWf-46" vertex="1">
          <mxGeometry y="216" width="220" height="26" as="geometry" />
        </mxCell>
        <mxCell id="ZCnHrs2GG1sbxFjUJOWf-50" style="edgeStyle=orthogonalEdgeStyle;rounded=0;orthogonalLoop=1;jettySize=auto;html=1;entryX=0.015;entryY=0.731;entryDx=0;entryDy=0;entryPerimeter=0;startArrow=open;startFill=0;endArrow=open;endFill=0;" parent="WIyWlLk6GJQsqaUBKTNV-1" source="ZCnHrs2GG1sbxFjUJOWf-46" target="34jW8y6ZJVeA6K0mkwZz-58" edge="1">
          <mxGeometry relative="1" as="geometry" />
        </mxCell>
        <mxCell id="ZCnHrs2GG1sbxFjUJOWf-56" value="Tela_Cliente" style="swimlane;fontStyle=0;align=center;verticalAlign=top;childLayout=stackLayout;horizontal=1;startSize=26;horizontalStack=0;resizeParent=1;resizeLast=0;collapsible=1;marginBottom=0;rounded=0;shadow=0;strokeWidth=1;fillColor=#f8cecc;strokeColor=#b85450;" parent="WIyWlLk6GJQsqaUBKTNV-1" vertex="1">
          <mxGeometry x="531.5" y="-350" width="225" height="216" as="geometry">
            <mxRectangle x="550" y="140" width="160" height="26" as="alternateBounds" />
          </mxGeometry>
        </mxCell>
        <mxCell id="ZCnHrs2GG1sbxFjUJOWf-57" value="" style="line;html=1;strokeWidth=1;align=left;verticalAlign=middle;spacingTop=-1;spacingLeft=3;spacingRight=3;rotatable=0;labelPosition=right;points=[];portConstraint=eastwest;rounded=0;" parent="ZCnHrs2GG1sbxFjUJOWf-56" vertex="1">
          <mxGeometry y="26" width="225" height="8" as="geometry" />
        </mxCell>
        <mxCell id="hOtxBI7cqi8a_a_TEYvA-20" value="+ &lt;&lt;create&gt;&gt; __init__(controlador)" style="text;align=left;verticalAlign=top;spacingLeft=4;spacingRight=4;overflow=hidden;rotatable=0;points=[[0,0.5],[1,0.5]];portConstraint=eastwest;rounded=0;" parent="ZCnHrs2GG1sbxFjUJOWf-56" vertex="1">
          <mxGeometry y="34" width="225" height="26" as="geometry" />
        </mxCell>
        <mxCell id="ZCnHrs2GG1sbxFjUJOWf-91" value="+ abre_tela()" style="text;align=left;verticalAlign=top;spacingLeft=4;spacingRight=4;overflow=hidden;rotatable=0;points=[[0,0.5],[1,0.5]];portConstraint=eastwest;rounded=0;" parent="ZCnHrs2GG1sbxFjUJOWf-56" vertex="1">
          <mxGeometry y="60" width="225" height="26" as="geometry" />
        </mxCell>
        <mxCell id="ZCnHrs2GG1sbxFjUJOWf-92" value="+ retornar()" style="text;align=left;verticalAlign=top;spacingLeft=4;spacingRight=4;overflow=hidden;rotatable=0;points=[[0,0.5],[1,0.5]];portConstraint=eastwest;rounded=0;" parent="ZCnHrs2GG1sbxFjUJOWf-56" vertex="1">
          <mxGeometry y="86" width="225" height="26" as="geometry" />
        </mxCell>
        <mxCell id="ZCnHrs2GG1sbxFjUJOWf-59" value="+ pega_dados_cliente()&#xa;" style="text;align=left;verticalAlign=top;spacingLeft=4;spacingRight=4;overflow=hidden;rotatable=0;points=[[0,0.5],[1,0.5]];portConstraint=eastwest;rounded=0;" parent="ZCnHrs2GG1sbxFjUJOWf-56" vertex="1">
          <mxGeometry y="112" width="225" height="26" as="geometry" />
        </mxCell>
        <mxCell id="ZCnHrs2GG1sbxFjUJOWf-60" value="+ mostra_clientes()&#xa;" style="text;align=left;verticalAlign=top;spacingLeft=4;spacingRight=4;overflow=hidden;rotatable=0;points=[[0,0.5],[1,0.5]];portConstraint=eastwest;rounded=0;" parent="ZCnHrs2GG1sbxFjUJOWf-56" vertex="1">
          <mxGeometry y="138" width="225" height="26" as="geometry" />
        </mxCell>
        <mxCell id="ZCnHrs2GG1sbxFjUJOWf-61" value="+ mostra_mensagem(mensagem:str)&#xa;" style="text;align=left;verticalAlign=top;spacingLeft=4;spacingRight=4;overflow=hidden;rotatable=0;points=[[0,0.5],[1,0.5]];portConstraint=eastwest;rounded=0;" parent="ZCnHrs2GG1sbxFjUJOWf-56" vertex="1">
          <mxGeometry y="164" width="225" height="26" as="geometry" />
        </mxCell>
        <mxCell id="ZCnHrs2GG1sbxFjUJOWf-99" value="+ busca_clientes(cpf:str)&#xa;" style="text;align=left;verticalAlign=top;spacingLeft=4;spacingRight=4;overflow=hidden;rotatable=0;points=[[0,0.5],[1,0.5]];portConstraint=eastwest;rounded=0;" parent="ZCnHrs2GG1sbxFjUJOWf-56" vertex="1">
          <mxGeometry y="190" width="225" height="26" as="geometry" />
        </mxCell>
        <mxCell id="ZCnHrs2GG1sbxFjUJOWf-62" style="edgeStyle=orthogonalEdgeStyle;rounded=0;orthogonalLoop=1;jettySize=auto;html=1;startArrow=open;startFill=0;endArrow=open;endFill=0;entryX=0.3;entryY=0.99;entryDx=0;entryDy=0;entryPerimeter=0;" parent="WIyWlLk6GJQsqaUBKTNV-1" source="34jW8y6ZJVeA6K0mkwZz-15" target="ZCnHrs2GG1sbxFjUJOWf-99" edge="1">
          <mxGeometry relative="1" as="geometry">
            <mxPoint x="500" y="-100" as="targetPoint" />
            <Array as="points">
              <mxPoint x="451" y="-70" />
              <mxPoint x="599" y="-70" />
            </Array>
          </mxGeometry>
        </mxCell>
        <mxCell id="ZCnHrs2GG1sbxFjUJOWf-67" value="Tela_Estoque" style="swimlane;fontStyle=0;align=center;verticalAlign=top;childLayout=stackLayout;horizontal=1;startSize=26;horizontalStack=0;resizeParent=1;resizeLast=0;collapsible=1;marginBottom=0;rounded=0;shadow=0;strokeWidth=1;fillColor=#f8cecc;strokeColor=#b85450;" parent="WIyWlLk6GJQsqaUBKTNV-1" vertex="1">
          <mxGeometry x="-2130" y="-380" width="280" height="228" as="geometry">
            <mxRectangle x="550" y="140" width="160" height="26" as="alternateBounds" />
          </mxGeometry>
        </mxCell>
        <mxCell id="ZCnHrs2GG1sbxFjUJOWf-69" value="" style="line;html=1;strokeWidth=1;align=left;verticalAlign=middle;spacingTop=-1;spacingLeft=3;spacingRight=3;rotatable=0;labelPosition=right;points=[];portConstraint=eastwest;rounded=0;" parent="ZCnHrs2GG1sbxFjUJOWf-67" vertex="1">
          <mxGeometry y="26" width="280" height="20" as="geometry" />
        </mxCell>
        <mxCell id="hOtxBI7cqi8a_a_TEYvA-29" value="+ &lt;&lt;create&gt;&gt; __init__(controlador)" style="text;align=left;verticalAlign=top;spacingLeft=4;spacingRight=4;overflow=hidden;rotatable=0;points=[[0,0.5],[1,0.5]];portConstraint=eastwest;rounded=0;" parent="ZCnHrs2GG1sbxFjUJOWf-67" vertex="1">
          <mxGeometry y="46" width="280" height="26" as="geometry" />
        </mxCell>
        <mxCell id="ZCnHrs2GG1sbxFjUJOWf-87" value="+ abre_tela()" style="text;align=left;verticalAlign=top;spacingLeft=4;spacingRight=4;overflow=hidden;rotatable=0;points=[[0,0.5],[1,0.5]];portConstraint=eastwest;rounded=0;" parent="ZCnHrs2GG1sbxFjUJOWf-67" vertex="1">
          <mxGeometry y="72" width="280" height="26" as="geometry" />
        </mxCell>
        <mxCell id="ZCnHrs2GG1sbxFjUJOWf-86" value="+ retornar()" style="text;align=left;verticalAlign=top;spacingLeft=4;spacingRight=4;overflow=hidden;rotatable=0;points=[[0,0.5],[1,0.5]];portConstraint=eastwest;rounded=0;" parent="ZCnHrs2GG1sbxFjUJOWf-67" vertex="1">
          <mxGeometry y="98" width="280" height="26" as="geometry" />
        </mxCell>
        <mxCell id="ZCnHrs2GG1sbxFjUJOWf-81" value="+ ver_ingredientes()" style="text;align=left;verticalAlign=top;spacingLeft=4;spacingRight=4;overflow=hidden;rotatable=0;points=[[0,0.5],[1,0.5]];portConstraint=eastwest;rounded=0;" parent="ZCnHrs2GG1sbxFjUJOWf-67" vertex="1">
          <mxGeometry y="124" width="280" height="26" as="geometry" />
        </mxCell>
        <mxCell id="ZCnHrs2GG1sbxFjUJOWf-82" value="+ cadastrar_ingrediente()" style="text;align=left;verticalAlign=top;spacingLeft=4;spacingRight=4;overflow=hidden;rotatable=0;points=[[0,0.5],[1,0.5]];portConstraint=eastwest;rounded=0;" parent="ZCnHrs2GG1sbxFjUJOWf-67" vertex="1">
          <mxGeometry y="150" width="280" height="26" as="geometry" />
        </mxCell>
        <mxCell id="ZCnHrs2GG1sbxFjUJOWf-84" value="+ deletar_ingrediente()" style="text;align=left;verticalAlign=top;spacingLeft=4;spacingRight=4;overflow=hidden;rotatable=0;points=[[0,0.5],[1,0.5]];portConstraint=eastwest;rounded=0;" parent="ZCnHrs2GG1sbxFjUJOWf-67" vertex="1">
          <mxGeometry y="176" width="280" height="26" as="geometry" />
        </mxCell>
        <mxCell id="ZCnHrs2GG1sbxFjUJOWf-83" value="+ modificar_ingrediente()" style="text;align=left;verticalAlign=top;spacingLeft=4;spacingRight=4;overflow=hidden;rotatable=0;points=[[0,0.5],[1,0.5]];portConstraint=eastwest;rounded=0;" parent="ZCnHrs2GG1sbxFjUJOWf-67" vertex="1">
          <mxGeometry y="202" width="280" height="26" as="geometry" />
        </mxCell>
        <mxCell id="ZCnHrs2GG1sbxFjUJOWf-104" value="Tela" style="rounded=0;whiteSpace=wrap;html=1;fillColor=#f8cecc;strokeColor=#b85450;fontSize=17;" parent="WIyWlLk6GJQsqaUBKTNV-1" vertex="1">
          <mxGeometry x="-970" y="-680" width="120" height="60" as="geometry" />
        </mxCell>
        <mxCell id="ZCnHrs2GG1sbxFjUJOWf-105" value="Controlador" style="rounded=0;whiteSpace=wrap;html=1;fillColor=#d5e8d4;strokeColor=#82b366;fontSize=17;" parent="WIyWlLk6GJQsqaUBKTNV-1" vertex="1">
          <mxGeometry x="-820" y="-680" width="120" height="60" as="geometry" />
        </mxCell>
        <mxCell id="hOtxBI7cqi8a_a_TEYvA-1" style="edgeStyle=orthogonalEdgeStyle;rounded=0;orthogonalLoop=1;jettySize=auto;html=1;entryX=0.5;entryY=1;entryDx=0;entryDy=0;" parent="WIyWlLk6GJQsqaUBKTNV-1" source="ZCnHrs2GG1sbxFjUJOWf-106" target="hOtxBI7cqi8a_a_TEYvA-0" edge="1">
          <mxGeometry relative="1" as="geometry" />
        </mxCell>
        <mxCell id="ZCnHrs2GG1sbxFjUJOWf-106" value="Entidade" style="rounded=0;whiteSpace=wrap;html=1;fillColor=#fff2cc;strokeColor=#d6b656;fontSize=17;" parent="WIyWlLk6GJQsqaUBKTNV-1" vertex="1">
          <mxGeometry x="-670" y="-680" width="120" height="60" as="geometry" />
        </mxCell>
        <mxCell id="ZCnHrs2GG1sbxFjUJOWf-109" style="edgeStyle=orthogonalEdgeStyle;rounded=0;orthogonalLoop=1;jettySize=auto;html=1;entryX=0.75;entryY=0;entryDx=0;entryDy=0;endArrow=open;endFill=0;" parent="WIyWlLk6GJQsqaUBKTNV-1" target="QIKu43iznkj8tfLvrIEL-0" edge="1">
          <mxGeometry relative="1" as="geometry">
            <mxPoint x="-160" y="-250" as="sourcePoint" />
            <Array as="points">
              <mxPoint x="-160" y="-260" />
              <mxPoint x="-1070" y="-260" />
            </Array>
          </mxGeometry>
        </mxCell>
        <mxCell id="ZCnHrs2GG1sbxFjUJOWf-110" style="edgeStyle=orthogonalEdgeStyle;rounded=0;orthogonalLoop=1;jettySize=auto;html=1;entryX=0.75;entryY=1;entryDx=0;entryDy=0;endArrow=open;endFill=0;" parent="WIyWlLk6GJQsqaUBKTNV-1" edge="1">
          <mxGeometry relative="1" as="geometry">
            <mxPoint x="60" y="-260" as="sourcePoint" />
            <Array as="points">
              <mxPoint x="80" y="-259" />
              <mxPoint x="80" y="650" />
              <mxPoint x="1254" y="650" />
            </Array>
            <mxPoint x="1253.75" y="610" as="targetPoint" />
          </mxGeometry>
        </mxCell>
        <mxCell id="hOtxBI7cqi8a_a_TEYvA-0" value="Todos os seus atributos possuem getters e setters" style="rounded=0;whiteSpace=wrap;html=1;" parent="WIyWlLk6GJQsqaUBKTNV-1" vertex="1">
          <mxGeometry x="-670" y="-780" width="120" height="60" as="geometry" />
        </mxCell>
        <mxCell id="hOtxBI7cqi8a_a_TEYvA-2" value="- tela_cliente" style="edgeLabel;resizable=0;html=1;align=left;verticalAlign=bottom;rounded=0;" parent="WIyWlLk6GJQsqaUBKTNV-1" connectable="0" vertex="1">
          <mxGeometry x="605" y="-114" as="geometry" />
        </mxCell>
        <mxCell id="hOtxBI7cqi8a_a_TEYvA-5" value="1" style="edgeLabel;resizable=0;html=1;align=left;verticalAlign=bottom;rounded=0;" parent="WIyWlLk6GJQsqaUBKTNV-1" connectable="0" vertex="1">
          <mxGeometry x="1105" y="110" as="geometry" />
        </mxCell>
        <mxCell id="hOtxBI7cqi8a_a_TEYvA-8" value="- tela_funcionario" style="edgeLabel;resizable=0;html=1;align=left;verticalAlign=bottom;rounded=0;" parent="WIyWlLk6GJQsqaUBKTNV-1" connectable="0" vertex="1">
          <mxGeometry x="1145" y="110" as="geometry" />
        </mxCell>
        <mxCell id="hOtxBI7cqi8a_a_TEYvA-16" value="1...*" style="edgeLabel;resizable=0;html=1;align=left;verticalAlign=bottom;rounded=0;" parent="WIyWlLk6GJQsqaUBKTNV-1" connectable="0" vertex="1">
          <mxGeometry x="880.0000000000005" y="170" as="geometry" />
        </mxCell>
        <mxCell id="hOtxBI7cqi8a_a_TEYvA-19" style="edgeStyle=orthogonalEdgeStyle;rounded=0;orthogonalLoop=1;jettySize=auto;html=1;entryX=0.119;entryY=0.016;entryDx=0;entryDy=0;entryPerimeter=0;endArrow=open;endFill=0;" parent="WIyWlLk6GJQsqaUBKTNV-1" source="34jW8y6ZJVeA6K0mkwZz-24" target="34jW8y6ZJVeA6K0mkwZz-15" edge="1">
          <mxGeometry relative="1" as="geometry" />
        </mxCell>
        <mxCell id="hOtxBI7cqi8a_a_TEYvA-47" value="1" style="edgeLabel;resizable=0;html=1;align=left;verticalAlign=bottom;rounded=0;" parent="WIyWlLk6GJQsqaUBKTNV-1" connectable="0" vertex="1">
          <mxGeometry x="580" y="-114" as="geometry" />
        </mxCell>
        <mxCell id="hOtxBI7cqi8a_a_TEYvA-48" value="- tela_pizzaria" style="edgeLabel;resizable=0;html=1;align=left;verticalAlign=bottom;rounded=0;" parent="WIyWlLk6GJQsqaUBKTNV-1" connectable="0" vertex="1">
          <mxGeometry x="-190" y="-680" as="geometry" />
        </mxCell>
        <mxCell id="hOtxBI7cqi8a_a_TEYvA-49" value="1" style="edgeLabel;resizable=0;html=1;align=left;verticalAlign=bottom;rounded=0;" parent="WIyWlLk6GJQsqaUBKTNV-1" connectable="0" vertex="1">
          <mxGeometry x="-180" y="-640" as="geometry" />
        </mxCell>
        <mxCell id="hOtxBI7cqi8a_a_TEYvA-50" value="1" style="edgeLabel;resizable=0;html=1;align=left;verticalAlign=bottom;rounded=0;" parent="WIyWlLk6GJQsqaUBKTNV-1" connectable="0" vertex="1">
          <mxGeometry x="-170" y="-630" as="geometry">
            <mxPoint x="-26" y="335" as="offset" />
          </mxGeometry>
        </mxCell>
        <mxCell id="hOtxBI7cqi8a_a_TEYvA-51" value="- tela_pedido" style="edgeLabel;resizable=0;html=1;align=left;verticalAlign=bottom;rounded=0;" parent="WIyWlLk6GJQsqaUBKTNV-1" connectable="0" vertex="1">
          <mxGeometry x="-410" y="430" as="geometry" />
        </mxCell>
        <mxCell id="hOtxBI7cqi8a_a_TEYvA-52" value="1" style="edgeLabel;resizable=0;html=1;align=left;verticalAlign=bottom;rounded=0;" parent="WIyWlLk6GJQsqaUBKTNV-1" connectable="0" vertex="1">
          <mxGeometry x="-400" y="400" as="geometry" />
        </mxCell>
        <mxCell id="hOtxBI7cqi8a_a_TEYvA-53" value="0...*" style="edgeLabel;resizable=0;html=1;align=left;verticalAlign=bottom;rounded=0;" parent="WIyWlLk6GJQsqaUBKTNV-1" connectable="0" vertex="1">
          <mxGeometry x="-170" y="155" as="geometry" />
        </mxCell>
        <mxCell id="hOtxBI7cqi8a_a_TEYvA-54" value="- lista_pedidos" style="edgeLabel;resizable=0;html=1;align=left;verticalAlign=bottom;rounded=0;" parent="WIyWlLk6GJQsqaUBKTNV-1" connectable="0" vertex="1">
          <mxGeometry x="-130" y="155" as="geometry" />
        </mxCell>
        <mxCell id="hOtxBI7cqi8a_a_TEYvA-56" value="- tela_produto" style="edgeLabel;resizable=0;html=1;align=left;verticalAlign=bottom;rounded=0;" parent="WIyWlLk6GJQsqaUBKTNV-1" connectable="0" vertex="1">
          <mxGeometry x="-1240" y="-30" as="geometry" />
        </mxCell>
        <mxCell id="hOtxBI7cqi8a_a_TEYvA-57" value="1" style="edgeLabel;resizable=0;html=1;align=left;verticalAlign=bottom;rounded=0;" parent="WIyWlLk6GJQsqaUBKTNV-1" connectable="0" vertex="1">
          <mxGeometry x="-1230" y="-70" as="geometry" />
        </mxCell>
        <mxCell id="hOtxBI7cqi8a_a_TEYvA-58" value="- tela_estoque" style="edgeLabel;resizable=0;html=1;align=left;verticalAlign=bottom;rounded=0;" parent="WIyWlLk6GJQsqaUBKTNV-1" connectable="0" vertex="1">
          <mxGeometry x="-1980" y="-130" as="geometry" />
        </mxCell>
        <mxCell id="hOtxBI7cqi8a_a_TEYvA-59" value="1" style="edgeLabel;resizable=0;html=1;align=left;verticalAlign=bottom;rounded=0;" parent="WIyWlLk6GJQsqaUBKTNV-1" connectable="0" vertex="1">
          <mxGeometry x="-1220" y="-60" as="geometry">
            <mxPoint x="-665" y="-73" as="offset" />
          </mxGeometry>
        </mxCell>
        <mxCell id="hOtxBI7cqi8a_a_TEYvA-60" value="1" style="edgeLabel;resizable=0;html=1;align=left;verticalAlign=bottom;rounded=0;" parent="WIyWlLk6GJQsqaUBKTNV-1" connectable="0" vertex="1">
          <mxGeometry x="-1360" y="40" as="geometry">
            <mxPoint x="-665" y="-73" as="offset" />
          </mxGeometry>
        </mxCell>
        <mxCell id="hOtxBI7cqi8a_a_TEYvA-61" value="1" style="edgeLabel;resizable=0;html=1;align=left;verticalAlign=bottom;rounded=0;" parent="WIyWlLk6GJQsqaUBKTNV-1" connectable="0" vertex="1">
          <mxGeometry x="-1140" y="86" as="geometry">
            <mxPoint x="-665" y="-73" as="offset" />
          </mxGeometry>
        </mxCell>
        <mxCell id="hOtxBI7cqi8a_a_TEYvA-62" value="1" style="edgeLabel;resizable=0;html=1;align=left;verticalAlign=bottom;rounded=0;" parent="WIyWlLk6GJQsqaUBKTNV-1" connectable="0" vertex="1">
          <mxGeometry x="-400" y="49" as="geometry">
            <mxPoint x="-463" y="-134" as="offset" />
          </mxGeometry>
        </mxCell>
        <mxCell id="hOtxBI7cqi8a_a_TEYvA-63" value="1" style="edgeLabel;resizable=0;html=1;align=left;verticalAlign=bottom;rounded=0;" parent="WIyWlLk6GJQsqaUBKTNV-1" connectable="0" vertex="1">
          <mxGeometry x="-20" y="80" as="geometry">
            <mxPoint x="-463" y="-134" as="offset" />
          </mxGeometry>
        </mxCell>
        <mxCell id="hOtxBI7cqi8a_a_TEYvA-64" value="1" style="edgeLabel;resizable=0;html=1;align=left;verticalAlign=bottom;rounded=0;" parent="WIyWlLk6GJQsqaUBKTNV-1" connectable="0" vertex="1">
          <mxGeometry x="400" y="-420" as="geometry">
            <mxPoint x="-26" y="335" as="offset" />
          </mxGeometry>
        </mxCell>
        <mxCell id="hOtxBI7cqi8a_a_TEYvA-65" value="1" style="edgeLabel;resizable=0;html=1;align=left;verticalAlign=bottom;rounded=0;" parent="WIyWlLk6GJQsqaUBKTNV-1" connectable="0" vertex="1">
          <mxGeometry x="1350" y="-114" as="geometry">
            <mxPoint x="-26" y="335" as="offset" />
          </mxGeometry>
        </mxCell>
        <mxCell id="KrR3Ijgz4C3MExihU3qD-1" value="Endereco" style="swimlane;fontStyle=0;align=center;verticalAlign=top;childLayout=stackLayout;horizontal=1;startSize=26;horizontalStack=0;resizeParent=1;resizeLast=0;collapsible=1;marginBottom=0;rounded=0;shadow=0;strokeWidth=1;fillColor=#fff2cc;strokeColor=#d6b656;" vertex="1" parent="WIyWlLk6GJQsqaUBKTNV-1">
          <mxGeometry x="100" y="266" width="280" height="190" as="geometry">
            <mxRectangle x="130" y="380" width="160" height="26" as="alternateBounds" />
          </mxGeometry>
        </mxCell>
        <mxCell id="KrR3Ijgz4C3MExihU3qD-7" value="- numero:int" style="text;align=left;verticalAlign=top;spacingLeft=4;spacingRight=4;overflow=hidden;rotatable=0;points=[[0,0.5],[1,0.5]];portConstraint=eastwest;rounded=0;" vertex="1" parent="KrR3Ijgz4C3MExihU3qD-1">
          <mxGeometry y="26" width="280" height="26" as="geometry" />
        </mxCell>
        <mxCell id="KrR3Ijgz4C3MExihU3qD-2" value="- rua:str" style="text;align=left;verticalAlign=top;spacingLeft=4;spacingRight=4;overflow=hidden;rotatable=0;points=[[0,0.5],[1,0.5]];portConstraint=eastwest;rounded=0;" vertex="1" parent="KrR3Ijgz4C3MExihU3qD-1">
          <mxGeometry y="52" width="280" height="26" as="geometry" />
        </mxCell>
        <mxCell id="KrR3Ijgz4C3MExihU3qD-3" value="- bairro:str" style="text;align=left;verticalAlign=top;spacingLeft=4;spacingRight=4;overflow=hidden;rotatable=0;points=[[0,0.5],[1,0.5]];portConstraint=eastwest;rounded=0;" vertex="1" parent="KrR3Ijgz4C3MExihU3qD-1">
          <mxGeometry y="78" width="280" height="26" as="geometry" />
        </mxCell>
        <mxCell id="KrR3Ijgz4C3MExihU3qD-6" value="- cidade:str" style="text;align=left;verticalAlign=top;spacingLeft=4;spacingRight=4;overflow=hidden;rotatable=0;points=[[0,0.5],[1,0.5]];portConstraint=eastwest;rounded=0;" vertex="1" parent="KrR3Ijgz4C3MExihU3qD-1">
          <mxGeometry y="104" width="280" height="26" as="geometry" />
        </mxCell>
        <mxCell id="KrR3Ijgz4C3MExihU3qD-8" value="- cep:str" style="text;align=left;verticalAlign=top;spacingLeft=4;spacingRight=4;overflow=hidden;rotatable=0;points=[[0,0.5],[1,0.5]];portConstraint=eastwest;rounded=0;" vertex="1" parent="KrR3Ijgz4C3MExihU3qD-1">
          <mxGeometry y="130" width="280" height="26" as="geometry" />
        </mxCell>
        <mxCell id="KrR3Ijgz4C3MExihU3qD-4" value="" style="line;html=1;strokeWidth=1;align=left;verticalAlign=middle;spacingTop=-1;spacingLeft=3;spacingRight=3;rotatable=0;labelPosition=right;points=[];portConstraint=eastwest;rounded=0;" vertex="1" parent="KrR3Ijgz4C3MExihU3qD-1">
          <mxGeometry y="156" width="280" height="8" as="geometry" />
        </mxCell>
        <mxCell id="KrR3Ijgz4C3MExihU3qD-5" value="+ &lt;&lt;create&gt;&gt; __init__(numero, rua, bairro, cidade)" style="text;align=left;verticalAlign=top;spacingLeft=4;spacingRight=4;overflow=hidden;rotatable=0;points=[[0,0.5],[1,0.5]];portConstraint=eastwest;rounded=0;" vertex="1" parent="KrR3Ijgz4C3MExihU3qD-1">
          <mxGeometry y="164" width="280" height="26" as="geometry" />
        </mxCell>
        <mxCell id="KrR3Ijgz4C3MExihU3qD-9" style="edgeStyle=orthogonalEdgeStyle;rounded=0;orthogonalLoop=1;jettySize=auto;html=1;entryX=0.75;entryY=0;entryDx=0;entryDy=0;startArrow=diamondThin;startFill=1;" edge="1" parent="WIyWlLk6GJQsqaUBKTNV-1" source="kdAsW70PlrFogEJaz6tP-25" target="KrR3Ijgz4C3MExihU3qD-1">
          <mxGeometry relative="1" as="geometry" />
        </mxCell>
        <mxCell id="KrR3Ijgz4C3MExihU3qD-16" value="1" style="edgeLabel;resizable=0;html=1;align=left;verticalAlign=bottom;rounded=0;" connectable="0" vertex="1" parent="WIyWlLk6GJQsqaUBKTNV-1">
          <mxGeometry x="480" y="-200" as="geometry">
            <mxPoint x="-160" y="458" as="offset" />
          </mxGeometry>
        </mxCell>
        <mxCell id="zkfFHV4jXpPFQw0GAbJ--7" value="- endereco:Endereco" style="text;align=left;verticalAlign=top;spacingLeft=4;spacingRight=4;overflow=hidden;rotatable=0;points=[[0,0.5],[1,0.5]];portConstraint=eastwest;rounded=0;" parent="WIyWlLk6GJQsqaUBKTNV-1" vertex="1">
          <mxGeometry x="175" y="237" width="130" height="26" as="geometry" />
        </mxCell>
      </root>
    </mxGraphModel>
  </diagram>
</mxfile>
